<?xml version="1.0" encoding="UTF-8"?>
<svg version="1.1" xmlns="http://www.w3.org/2000/svg" width="3385" height="1146">
<path d="M0 0 C1.17059967 0.00182281 2.34119934 0.00364563 3.54727173 0.00552368 C24.09820111 0.05902947 44.401575 0.91390156 64.8125 3.3125 C65.52355896 3.395 66.23461792 3.4775 66.96722412 3.5625 C141.85627779 12.33699552 212.8525376 34.16752025 277.20181274 73.8760376 C284.55889263 78.40511446 292.00069309 82.79109286 299.4375 87.1875 C310.61927623 93.80466937 321.75969953 100.48125527 332.8125 107.3125 C330.70473097 102.17341651 327.95980847 99.52946602 323.5 96.4375 C315.3895841 90.46647666 310.61748281 85.4939567 309.0390625 75.21875 C308.96429687 74.5896875 308.88953125 73.960625 308.8125 73.3125 C314.16523941 74.84185412 318.66194306 77.27754111 323.4375 80.0625 C324.26290283 80.54348145 325.08830566 81.02446289 325.9387207 81.52001953 C344.75059513 92.6726596 362.1891444 106.00523147 378.1875 120.8984375 C380.26040576 122.80477047 382.36058634 124.64640065 384.49609375 126.48046875 C389.50764493 130.85132197 394.18526258 135.53905804 398.875 140.25 C399.73416016 141.10529297 400.59332031 141.96058594 401.47851562 142.84179688 C406.46524118 147.83614157 411.24245638 152.93525349 415.8125 158.3125 C416.72522738 159.36851814 417.63798581 160.42450944 418.55078125 161.48046875 C424.39709198 168.33812914 430.07007792 175.29719922 435.46728516 182.51660156 C436.38642605 183.74367968 437.31083196 184.96682708 438.23974609 186.18652344 C459.54624938 214.22764044 474.70651912 244.92279711 488.375 277.26171875 C492.61125279 287.26762214 497.03506795 297.19143032 501.4375 307.125 C503.07198178 310.81494163 504.7060778 314.50505387 506.33984375 318.1953125 C506.92438576 319.5155265 506.92438576 319.5155265 507.52073669 320.8624115 C512.00208605 330.99045305 516.4225466 341.14451024 520.8125 351.3125 C520.668125 350.28769531 520.52375 349.26289063 520.375 348.20703125 C520.18732375 346.84637846 519.99983358 345.48570001 519.8125 344.125 C519.71710938 343.45146484 519.62171875 342.77792969 519.5234375 342.08398438 C519.02925387 338.46585423 518.69903869 334.96453599 518.8125 331.3125 C521.19142955 334.24146921 522.67382866 337.03549532 524.06494141 340.53662109 C524.48192291 341.57805267 524.89890442 342.61948425 525.32852173 343.69247437 C525.98961441 345.37223862 525.98961441 345.37223862 526.6640625 347.0859375 C527.12356293 348.24243805 527.58306335 349.3989386 528.05648804 350.59048462 C529.27394853 353.66059675 530.4854382 356.73298666 531.69500732 359.80621338 C532.43618138 361.68415896 533.18202358 363.56017642 533.9296875 365.43554688 C535.36840696 369.04566701 536.79880574 372.65896963 538.2265625 376.2734375 C538.67133942 377.38923187 539.11611633 378.50502625 539.57437134 379.65463257 C539.98504852 380.70236847 540.39572571 381.75010437 540.81884766 382.82958984 C541.18064117 383.74574066 541.54243469 384.66189148 541.91519165 385.60580444 C543.73731222 391.10215989 543.94734739 396.44423008 543.875 402.1875 C543.87048828 402.87585938 543.86597656 403.56421875 543.86132812 404.2734375 C543.84966336 405.95316335 543.83173271 407.63284375 543.8125 409.3125 C540.6064801 406.22050172 538.28224419 403.01711628 535.8125 399.3125 C535.1525 398.9825 534.4925 398.6525 533.8125 398.3125 C536.04744697 410.65986864 538.29019953 423.00579314 540.54235268 435.35003567 C541.58839959 441.08482765 542.63196348 446.82004616 543.66943359 452.55639648 C544.67473495 458.1143181 545.68710523 463.67091333 546.70396042 469.22673225 C547.0866242 471.32405816 547.46693242 473.42181556 547.84459305 475.52004814 C551.14599939 493.84658351 555.0961384 512.00624185 560.22785378 529.91457272 C561.45357695 534.941878 561.08157376 539.46772866 559.83740234 544.47192383 C558.76143851 549.19804536 558.35442324 553.80497335 558.1015625 558.63671875 C557.99237444 560.46476381 557.88316105 562.29280737 557.77392578 564.12084961 C557.71948303 565.07716278 557.66504028 566.03347595 557.60894775 567.01876831 C557.31240133 572.17528726 556.9848679 577.32981442 556.65625 582.484375 C556.58850372 583.54792709 556.52075745 584.61147919 556.45095825 585.70726013 C550.37285869 679.69479458 536.36807017 776.81707141 485.77441406 861.24365234 C481.6342993 868.27578134 478.4512042 875.65344184 475.4230957 883.22338867 C471.72721011 892.2455798 466.93602984 900.64492104 458.8125 906.3125 C458.1525 906.3125 457.4925 906.3125 456.8125 906.3125 C458.1098919 902.87384075 459.61224434 899.77292225 461.4921875 896.6171875 C462.00910156 895.73546875 462.52601562 894.85375 463.05859375 893.9453125 C464.13225092 892.12756199 465.21027931 890.31238523 466.29296875 888.5 C469.91016595 882.30678395 472.59017886 876.13079839 474.8125 869.3125 C474.46171387 869.81885986 474.11092773 870.32521973 473.74951172 870.84692383 C446.94365956 909.48399515 418.02078995 946.37265911 387.3605957 982.01025391 C384.83749027 984.94311524 382.32712308 987.8849473 379.84375 990.8515625 C369.77304601 1002.83891677 359.11406654 1013.59651076 346.8125 1023.3125 C345.58389927 1024.31652143 344.35747429 1025.32320903 343.1328125 1026.33203125 C334.56010263 1033.38586213 325.83033468 1040.17385328 316.89746094 1046.76464844 C314.78742548 1048.33111504 312.69359648 1049.91740541 310.6015625 1051.5078125 C285.49875259 1070.46714254 258.56788086 1087.14155557 230.94335938 1102.15087891 C228.90892435 1103.25993503 226.88388898 1104.38468537 224.859375 1105.51171875 C186.85064897 1126.42826366 138.54133331 1146.80027724 94.3125 1146.375 C93.0853125 1146.36597656 91.858125 1146.35695313 90.59375 1146.34765625 C89.6759375 1146.33605469 88.758125 1146.32445312 87.8125 1146.3125 C90.46329192 1144.54530539 92.44137817 1143.63043655 95.40625 1142.60766602 C96.34089081 1142.28253525 97.27553162 1141.95740448 98.23849487 1141.62242126 C99.25291656 1141.27393631 100.26733826 1140.92545135 101.3125 1140.56640625 C103.48855386 1139.80972339 105.66449351 1139.05271201 107.84033203 1138.29541016 C109.54941742 1137.70267303 109.54941742 1137.70267303 111.29302979 1137.09796143 C150.77409888 1123.378901 189.57877041 1108.78433315 223.8125 1084.3125 C222.4807373 1084.68387085 222.4807373 1084.68387085 221.12207031 1085.06274414 C217.82171457 1085.97809405 214.51920305 1086.88465933 211.21484375 1087.78540039 C209.78614902 1088.1767681 208.35839765 1088.57159686 206.93164062 1088.9699707 C204.87869624 1089.54253632 202.82266279 1090.1025019 200.765625 1090.66015625 C199.52973633 1091.00054932 198.29384766 1091.34094238 197.02050781 1091.69165039 C194.06157496 1092.26429622 192.57499865 1092.37708736 189.8125 1091.3125 C190.57054932 1090.90112793 191.32859863 1090.48975586 192.10961914 1090.06591797 C249.33445853 1058.94023061 307.52399057 1021.8007422 349.8125 971.3125 C350.73170251 970.24361164 351.65242783 969.17603196 352.57421875 968.109375 C357.95722671 961.87393595 363.25685497 955.58580111 368.44140625 949.18359375 C370.25822497 946.98365675 372.09590225 944.81516593 373.96484375 942.66015625 C374.50882813 942.03238281 375.0528125 941.40460937 375.61328125 940.7578125 C376.68119709 939.52932698 377.75265761 938.30391128 378.828125 937.08203125 C381.24188422 934.30525283 383.40700794 931.73786089 384.8125 928.3125 C372.57371444 934.17149309 363.94244179 941.55864128 354.68945312 951.40527344 C352.16695386 953.96845817 349.46521281 956.28537318 346.73632812 958.62451172 C343.78469737 961.21430551 341.05556123 964.00550881 338.3125 966.8125 C334.29468625 970.87576804 330.24998222 974.81566635 325.890625 978.515625 C323.73154766 980.38249639 321.63679837 982.31156161 319.54541016 984.25366211 C313.49775503 989.86470137 307.27992854 995.18533134 300.8125 1000.3125 C299.87535156 1001.06789063 298.93820312 1001.82328125 297.97265625 1002.6015625 C279.45568388 1017.234022 259.05387894 1029.25577239 238.8125 1041.3125 C237.91225098 1041.85036133 237.01200195 1042.38822266 236.08447266 1042.94238281 C213.6924302 1056.27761616 191.11417252 1068.30622118 165.8515625 1075.171875 C164.91482193 1075.42663605 163.97808136 1075.68139709 163.01295471 1075.94387817 C152.19313167 1078.82549422 141.25275319 1081.12811773 130.29949951 1083.43780518 C112.88874077 1087.11515621 95.52632725 1090.78658743 78.47241211 1095.90185547 C51.38855993 1103.96466524 51.38855993 1103.96466524 40.8125 1098.3125 C59.99385048 1091.25636426 79.55435151 1086.0979344 99.37646484 1081.18286133 C119.95588801 1076.03041402 139.6025694 1069.32989564 158.8125 1060.3125 C155.8425 1058.9925 152.8725 1057.6725 149.8125 1056.3125 C152.85565523 1053.26934477 154.85038388 1052.23029131 158.74609375 1050.5625 C159.94331055 1050.04179932 161.14052734 1049.52109863 162.37402344 1048.98461914 C163.32335754 1048.57567917 163.32335754 1048.57567917 164.29187012 1048.15847778 C174.0807158 1043.92936814 183.73005427 1039.5512995 193.0625 1034.375 C193.82747803 1033.95154297 194.59245605 1033.52808594 195.38061523 1033.09179688 C200.69580406 1030.08255321 205.77003789 1026.75640379 210.8125 1023.3125 C200.88980058 1025.66844819 191.11451817 1028.34070354 181.37792969 1031.38134766 C180.16024902 1031.75718994 180.16024902 1031.75718994 178.91796875 1032.140625 C178.19762451 1032.3665332 177.47728027 1032.59244141 176.73510742 1032.82519531 C174.8125 1033.3125 174.8125 1033.3125 171.8125 1033.3125 C171.8125 1032.6525 171.8125 1031.9925 171.8125 1031.3125 C173.82266848 1029.75141171 175.8367955 1028.30544296 177.9375 1026.875 C191.12520974 1017.66715266 204.41989965 1007.70510035 215.8125 996.3125 C215.17973145 996.58400879 214.54696289 996.85551758 213.89501953 997.13525391 C161.48201973 1019.53567324 161.48201973 1019.53567324 145.8125 1014.3125 C145.8125 1013.6525 145.8125 1012.9925 145.8125 1012.3125 C148.4683941 1010.58322473 151.11881812 1008.99391295 153.875 1007.4375 C154.72408936 1006.9513623 155.57317871 1006.46522461 156.44799805 1005.96435547 C162.92464144 1002.29177157 169.50476074 998.84242019 176.125 995.4375 C199.18078297 983.71858454 199.18078297 983.71858454 219.8125 968.3125 C220.52921875 967.70148437 221.2459375 967.09046875 221.984375 966.4609375 C224.08196758 964.63786207 226.11802059 962.76439987 228.13964844 960.85791016 C229.41339124 959.6812038 230.70680834 958.5257552 232.00878906 957.38037109 C242.60722231 948.92732215 242.60722231 948.92732215 248.51171875 937.45703125 C248.25848386 935.15233793 247.96308589 932.85179688 247.62109375 930.55859375 C247.86240742 926.46611096 249.05956333 925.27371744 251.93432617 922.51513672 C254.17911331 920.57513547 256.47766108 918.7241158 258.82006836 916.90356445 C267.19618966 910.21477845 274.73570194 902.54789617 282.29077148 894.96459961 C284.00457233 893.2454133 285.72369082 891.53167417 287.44335938 889.81835938 C293.11450335 884.15095181 298.62561292 878.43209065 303.8125 872.3125 C304.83343145 871.15533623 305.85685586 870.00036696 306.8828125 868.84765625 C314.98555873 859.66638301 322.51681557 850.14429289 329.8125 840.3125 C330.35406738 839.58659668 330.89563477 838.86069336 331.45361328 838.11279297 C347.71427207 816.25000641 362.05090618 792.89446273 373.84277344 768.31689453 C374.8469131 766.24136919 375.8789762 764.18134087 376.9140625 762.12109375 C401.34286639 712.84962305 414.72352809 656.92146768 419.8125 602.3125 C419.90096191 601.3730957 419.98942383 600.43369141 420.08056641 599.46582031 C428.03666209 510.04461871 406.19265817 421.97999523 353.8125 318.3125 C353.10843018 317.08611816 353.10843018 317.08611816 352.39013672 315.83496094 C333.58814455 283.28091215 311.3948279 247.6168648 280.640625 224.8984375 C278.8125 223.3125 278.8125 223.3125 277.8125 220.3125 C277.93109375 219.549375 278.0496875 218.78625 278.171875 218 C278.64245702 214.76239567 278.61848133 212.49941596 277.8125 209.3125 C274.57143958 205.48957135 270.82196435 202.65467775 266.77148438 199.73046875 C264.81352989 198.31324546 262.89692113 196.85278794 260.984375 195.375 C256.97208941 192.29161015 252.90330117 189.29067998 248.8125 186.3125 C248.13171387 185.8160498 247.45092773 185.31959961 246.74951172 184.80810547 C229.18354658 172.0581459 210.77396928 160.85504669 191.8125 150.3125 C191.09416992 149.9093457 190.37583984 149.50619141 189.63574219 149.09082031 C131.5480398 116.62923151 60.53763432 97.47116431 -6.1875 100.3125 C-7.72301514 100.3741333 -7.72301514 100.3741333 -9.28955078 100.43701172 C-62.50952233 102.78484133 -113.72641633 116.35578109 -162.1875 138.3125 C-163.30495605 138.81362305 -164.42241211 139.31474609 -165.57373047 139.83105469 C-218.79327049 163.7675439 -265.92804418 193.22270653 -307.40280151 234.35357666 C-308.4080005 235.35008067 -309.41456344 236.34521114 -310.42263794 237.33880615 C-317.14988178 243.98077368 -323.29947346 250.91470369 -329.1875 258.3125 C-330.05089981 259.34004033 -330.91929144 260.36345293 -331.796875 261.37890625 C-376.42199646 313.41440372 -403.9093614 378.23921424 -423.1875 443.3125 C-423.45997559 444.2288623 -423.73245117 445.14522461 -424.01318359 446.08935547 C-425.41999504 450.82600239 -426.81261164 455.56649113 -428.1875 460.3125 C-431.1995432 457.44738574 -432.86335611 455.28493168 -434.1875 451.3125 C-434.8475 451.3125 -435.5075 451.3125 -436.1875 451.3125 C-437.86160073 478.78568876 -437.46043543 506.29100303 -436.73828125 533.7890625 C-436.71665609 534.61291065 -436.69503094 535.4367588 -436.67275047 536.28557205 C-436.45183812 544.64438037 -436.22087364 553.0028346 -435.97066784 561.36081886 C-435.29497945 584.01813185 -435.05854798 606.64521442 -435.1875 629.3125 C-437.57352334 624.68322985 -438.50497614 620.08273697 -439.5625 615 C-439.88577271 613.45602539 -439.88577271 613.45602539 -440.21557617 611.88085938 C-442.97192003 598.14073377 -444.56300471 584.22336043 -446.1875 570.3125 C-447.40810817 638.69472558 -424.37435268 702.42891545 -395.1875 763.3125 C-394.74696289 764.23353516 -394.30642578 765.15457031 -393.85253906 766.10351562 C-388.69784897 776.8152916 -383.07892048 787.20229585 -377.15551758 797.5078125 C-372.6675212 805.34678454 -368.48614423 813.32085314 -364.49658203 821.42504883 C-361.1302966 828.07965724 -357.00993878 833.63896541 -352.1875 839.3125 C-348.55641087 843.76058419 -347.75362681 846.58172837 -347.8515625 852.1640625 C-348.22228518 854.53496339 -349.0117052 856.23369479 -350.1875 858.3125 C-354.04457252 857.75101063 -355.79274849 856.07226433 -358.49707031 853.34350586 C-359.33763977 852.50270981 -360.17820923 851.66191376 -361.04425049 850.79563904 C-361.94230408 849.88210159 -362.84035767 848.96856415 -363.765625 848.02734375 C-364.6921991 847.09652481 -365.61877319 846.16570587 -366.57342529 845.2066803 C-369.03289987 842.73576879 -371.48323101 840.25598031 -373.9317627 837.77423096 C-376.43342051 835.24184747 -378.94362622 832.7179687 -381.453125 830.19335938 C-386.37298013 825.24136047 -391.28322753 820.27993051 -396.1875 815.3125 C-391.61071442 824.13566547 -386.91485115 832.71032722 -381.3125 840.9375 C-380.70881592 841.83210937 -380.10513184 842.72671875 -379.4831543 843.6484375 C-374.64541258 850.76083642 -369.61836457 857.64054644 -364.1875 864.3125 C-363.76968262 864.82651367 -363.35186523 865.34052734 -362.92138672 865.87011719 C-353.23367346 877.72237772 -343.05210687 889.59315415 -331.1875 899.3125 C-330.16763964 900.18037847 -329.14957253 901.05036641 -328.1328125 901.921875 C-323.33124995 906.03008125 -318.52672204 910.10507008 -313.5 913.9375 C-306.71884611 919.16515318 -300.48064587 924.79375878 -294.77148438 931.17480469 C-281.24951213 946.28504453 -264.2393252 955.24732735 -244.30078125 959.0546875 C-234.72704595 960.89085521 -227.26867532 964.15466181 -218.83276367 969.0324707 C-192.83169168 983.96439425 -163.39030312 989.40675082 -134.1875 994.3125 C-103.63788636 999.44544921 -82.46175095 1005.00767355 -60.1875 1027.3125 C-59.49736816 1028.00102051 -58.80723633 1028.68954102 -58.09619141 1029.39892578 C-55.47172422 1032.01963389 -52.84887624 1034.64163738 -50.2434082 1037.28125 C-47.10622052 1040.45038461 -43.93784756 1043.46454141 -40.5 1046.3125 C-35.81989791 1050.28041264 -32.76705544 1055.082279 -32.1875 1061.3125 C-32.12433594 1061.97378906 -32.06117188 1062.63507813 -31.99609375 1063.31640625 C-31.08131948 1081.22827666 -40.54941923 1098.37341427 -52.1875 1111.3125 C-52.73921875 1111.94542969 -53.2909375 1112.57835937 -53.859375 1113.23046875 C-61.90541906 1121.90870199 -72.46687811 1127.72003411 -84.1875 1129.3125 C-86.15858003 1129.34947675 -88.13127576 1129.3287556 -90.1015625 1129.26171875 C-91.30844727 1129.22385254 -92.51533203 1129.18598633 -93.75878906 1129.14697266 C-95.11003866 1129.09833099 -96.46127522 1129.04932612 -97.8125 1129 C-99.25226469 1128.95060079 -100.69204401 1128.9016264 -102.13183594 1128.85302734 C-104.57271651 1128.77052358 -107.01356413 1128.68737863 -109.4543457 1128.60198975 C-116.07266252 1128.37340734 -122.69158865 1128.18584832 -129.31149292 1128.00953674 C-133.99789106 1127.88324127 -138.68402864 1127.74908273 -143.37011147 1127.61163616 C-146.72134891 1127.51377175 -150.07251618 1127.42149262 -153.4241333 1127.33700562 C-157.24675469 1127.23949736 -161.06857223 1127.12530868 -164.890625 1127.0078125 C-166.02303619 1126.98271103 -167.15544739 1126.95760956 -168.32217407 1126.93174744 C-179.89682683 1126.54351222 -190.98251223 1124.39008398 -201.5625 1119.625 C-202.42061279 1119.24690186 -203.27872559 1118.86880371 -204.1628418 1118.47924805 C-225.51633216 1108.89995612 -246.32363948 1098.15692811 -266.34179688 1086.03466797 C-269.25620077 1084.27092354 -272.18191079 1082.5271224 -275.109375 1080.78515625 C-286.67993292 1073.86402034 -297.94725219 1066.60934016 -308.98046875 1058.86083984 C-311.11602001 1057.36264669 -313.26000318 1055.8773471 -315.40625 1054.39453125 C-332.00658604 1042.86992861 -347.95307018 1030.48218369 -363.55664062 1017.64794922 C-365.72922336 1015.86890318 -367.92548491 1014.12058832 -370.125 1012.375 C-381.77552836 1003.07415803 -393.20984479 993.51659603 -404.49023438 983.77148438 C-406.19954674 982.30214452 -407.91845199 980.84486128 -409.640625 979.390625 C-418.41463799 971.9669336 -426.88311929 964.25786115 -435.1875 956.3125 C-435.71005371 955.81331055 -436.23260742 955.31412109 -436.77099609 954.79980469 C-442.54248027 949.25328173 -447.88552634 943.52162524 -452.85546875 937.24609375 C-454.42552564 935.27103056 -456.0335676 933.3256425 -457.67578125 931.41015625 C-473.78397724 912.43217643 -486.61442803 890.22518582 -499.52734375 869.01464844 C-501.41266189 865.9460159 -503.3300468 862.89863907 -505.25 859.8515625 C-517.10525376 840.97314461 -525.80687161 822.10132947 -533.9765625 801.40625 C-536.63521263 794.67183062 -539.36065152 787.96642088 -542.10571289 781.2668457 C-564.19064345 727.35896045 -583.33908536 673.29926117 -582.1875 614.3125 C-579.2175 613.9825 -576.2475 613.6525 -573.1875 613.3125 C-573.32879333 612.57156097 -573.47008667 611.83062195 -573.61566162 611.06723022 C-575.23446712 601.76448159 -575.48115553 592.69094106 -575.453125 583.2890625 C-575.45447892 581.65554751 -575.45642542 580.02203292 -575.45892334 578.38851929 C-575.4618555 574.97121326 -575.45764903 571.55401242 -575.44824219 568.13671875 C-575.43701007 563.85778519 -575.44351945 559.57910473 -575.45510578 555.30018044 C-575.51980071 527.2694274 -574.72997681 499.45080141 -570.5 471.6875 C-570.37122467 470.81850067 -570.24244934 469.94950134 -570.10977173 469.0541687 C-558.278431 389.23825534 -533.69749888 315.38227521 -493.1875 245.3125 C-491.8675 245.3125 -490.5475 245.3125 -489.1875 245.3125 C-487.62981234 246.87018766 -487.86690917 248.32832355 -487.75 250.5 C-487.79231823 255.27148992 -489.00589119 258.27004192 -491.1796875 262.484375 C-494.9264758 270.50547091 -494.90168253 278.11540121 -494.77954102 286.83346558 C-494.61674122 300.83979823 -495.0880325 313.92274796 -499.28662109 327.37304688 C-500.4291757 331.10105703 -501.47511865 334.85288043 -502.51953125 338.609375 C-503.74667183 343.02003985 -504.97581803 347.42968269 -506.24023438 351.82983398 C-506.4346965 352.50858582 -506.62915863 353.18733765 -506.82951355 353.88665771 C-507.36483809 355.75200256 -507.90268218 357.61662381 -508.44067383 359.48120117 C-509.27251714 362.14678587 -509.27251714 362.14678587 -509.1875 364.3125 C-503.18920545 360.1672657 -500.83429095 355.36843423 -497.875 348.8125 C-497.16887573 347.2951123 -497.16887573 347.2951123 -496.44848633 345.74707031 C-492.89112909 338.04116179 -489.56424114 330.24068537 -486.25952148 322.42407227 C-478.99788411 305.35172717 -478.99788411 305.35172717 -472.1875 300.3125 C-472.24550781 301.18132812 -472.30351562 302.05015625 -472.36328125 302.9453125 C-472.93538896 310.50466647 -472.93538896 310.50466647 -469.8125 317.0625 C-467.41992997 319.29734152 -467.41992997 319.29734152 -465.1875 320.3125 C-464.90696777 319.58683838 -464.62643555 318.86117676 -464.33740234 318.11352539 C-457.76219619 302.09710496 -448.34314399 286.96311394 -439.1875 272.3125 C-438.55763184 271.3033252 -437.92776367 270.29415039 -437.27880859 269.25439453 C-429.7779193 257.28311322 -422.1719786 245.47619096 -413.62402344 234.22460938 C-411.98808837 232.0470697 -410.38734087 229.84594607 -408.7890625 227.640625 C-402.69466418 219.24596749 -396.49651738 211.05363754 -389.6953125 203.21875 C-387.3167427 200.46227658 -385.02719364 197.65287057 -382.75 194.8125 C-378.88359833 190.0575895 -374.80221132 185.54588355 -370.61157227 181.078125 C-368.01144379 178.30465463 -365.47780182 175.49638284 -363.00390625 172.609375 C-358.7828037 167.76170254 -354.25237547 163.22697803 -349.69946289 158.6940918 C-348.25225615 157.25224779 -346.81047974 155.80512884 -345.36914062 154.35742188 C-340.14429144 149.12887966 -334.80062022 144.12059672 -329.1875 139.3125 C-327.6426874 137.8992645 -326.10054675 136.48309591 -324.5625 135.0625 C-318.98429748 130.03533572 -313.11312668 125.44438784 -307.17382812 120.85742188 C-305.0777122 119.22710949 -302.99891829 117.57640544 -300.921875 115.921875 C-290.69003311 107.80436622 -280.18815472 100.348893 -269.1875 93.3125 C-268.40101074 92.80396484 -267.61452148 92.29542969 -266.80419922 91.77148438 C-231.39616096 68.94775994 -194.53216827 53.74217116 -154.70158386 40.49259949 C-147.65635149 38.1467903 -140.62700669 35.75911895 -133.609375 33.33203125 C-132.71784225 33.02412659 -131.82630951 32.71622192 -130.90776062 32.39898682 C-127.53632574 31.23405177 -124.1651324 30.06848606 -120.79629517 28.89605713 C-118.5439652 28.11283194 -116.28979528 27.33514176 -114.03515625 26.55859375 C-113.04977875 26.21306206 -113.04977875 26.21306206 -112.04449463 25.86054993 C-109.27510242 24.91116665 -107.14180208 24.3125 -104.1875 24.3125 C-104.1875 21.0125 -104.1875 17.7125 -104.1875 14.3125 C-98.8443698 11.84478926 -93.59927101 10.21754105 -87.875 8.875 C-86.51725464 8.55631958 -86.51725464 8.55631958 -85.13208008 8.23120117 C-77.9210024 6.59717891 -70.67734746 5.27910823 -63.375 4.125 C-62.41875732 3.97039307 -61.46251465 3.81578613 -60.47729492 3.65649414 C-40.41663089 0.6478031 -20.25620525 -0.0660861 0 0 Z M29.8125 28.3125 C34.12325443 30.6145888 38.49838443 31.61501333 43.23046875 32.73046875 C44.62521675 33.06041084 44.62521675 33.06041084 46.04814148 33.39701843 C55.09289367 35.47532248 64.19235804 36.89622141 73.37210083 38.22283936 C121.85500319 45.30552349 166.72744055 60.95929478 210.55957031 82.70361328 C213.44576043 84.13111199 216.34076777 85.53740136 219.2421875 86.93359375 C231.48746462 92.86971325 243.16484145 99.6506466 254.86816406 106.58398438 C258.55654144 108.74930045 262.27640016 110.85542483 266.00146484 112.95678711 C275.1013501 118.09272644 283.99622049 123.4729735 292.7890625 129.1171875 C296.42072451 131.44442772 300.08605566 133.70742879 303.7734375 135.9453125 C315.23676082 142.93039487 326.04858825 150.12707225 336.20410156 158.92285156 C338.71064521 161.0884931 341.26336962 163.19726416 343.8125 165.3125 C344.4725 164.9825 345.1325 164.6525 345.8125 164.3125 C336.18596942 152.02623474 336.18596942 152.02623474 325.01245117 141.19018555 C322.8498703 139.34439602 320.74320203 137.44843241 318.63671875 135.5390625 C314.09986364 131.50115017 309.37733822 127.80272215 304.5 124.1875 C303.63608643 123.54643311 302.77217285 122.90536621 301.88208008 122.24487305 C300.08266903 120.91532724 298.28081569 119.58908063 296.4765625 118.26611328 C294.75160025 117.00116204 293.03001066 115.73159336 291.3125 114.45654297 C273.36427933 101.17155191 254.83189388 91.4670963 233.78198242 84.02368164 C226.59800919 81.45157865 219.82524595 78.52849924 213.0625 75 C157.55796895 46.15472059 92.72705387 27.06529519 29.8125 28.3125 Z M-512.1875 368.3125 C-515.14910608 371.6562488 -516.48196495 374.04866239 -518.1875 378.3125 C-514.5575 379.9625 -510.9275 381.6125 -507.1875 383.3125 C-508.27483452 378.18649439 -509.41387492 373.25331272 -511.1875 368.3125 C-511.5175 368.3125 -511.8475 368.3125 -512.1875 368.3125 Z M528.8125 381.3125 C529.06811323 383.6556213 529.40520772 385.99093403 529.8125 388.3125 C530.4725 388.6425 531.1325 388.9725 531.8125 389.3125 C532.0627157 386.39615871 532.0627157 386.39615871 531.8125 383.3125 C530.8225 382.6525 529.8325 381.9925 528.8125 381.3125 Z M-522.1875 391.3125 C-522.8475 391.9725 -523.5075 392.6325 -524.1875 393.3125 C-524.10178339 395.40541157 -524.10178339 395.40541157 -523.1875 397.3125 C-522.1975 397.6425 -521.2075 397.9725 -520.1875 398.3125 C-519.1975 397.3225 -518.2075 396.3325 -517.1875 395.3125 C-517.5175 394.3225 -517.8475 393.3325 -518.1875 392.3125 C-520.09458843 391.39821661 -520.09458843 391.39821661 -522.1875 391.3125 Z M488.8125 840.3125 C489.8125 842.3125 489.8125 842.3125 489.8125 842.3125 Z M487.8125 842.3125 C484.8425 848.9125 481.8725 855.5125 478.8125 862.3125 C480.4625 861.9825 482.1125 861.6525 483.8125 861.3125 C484.67750888 858.71148714 485.52976928 856.10743589 486.375 853.5 C486.62185547 852.76201172 486.86871094 852.02402344 487.12304688 851.26367188 C488.62867332 846.82443634 488.62867332 846.82443634 487.8125 842.3125 Z M391.8125 917.3125 C391.4825 918.3025 391.1525 919.2925 390.8125 920.3125 C391.8025 919.9825 392.7925 919.6525 393.8125 919.3125 C393.1525 918.6525 392.4925 917.9925 391.8125 917.3125 Z M255.8125 992.3125 C255.8125 992.9725 255.8125 993.6325 255.8125 994.3125 C256.4725 994.3125 257.1325 994.3125 257.8125 994.3125 C257.8125 993.6525 257.8125 992.9925 257.8125 992.3125 C257.1525 992.3125 256.4925 992.3125 255.8125 992.3125 Z M243.8125 1000.3125 C242.0392539 1001.57996453 240.26899025 1002.85160235 238.5 1004.125 C237.51386719 1004.83269531 236.52773438 1005.54039062 235.51171875 1006.26953125 C233.41192813 1007.85880837 231.59215031 1009.38707629 229.8125 1011.3125 C234.44538815 1010.02181268 237.51003944 1008.2686156 241.1875 1005.1875 C242.06148437 1004.46304688 242.93546875 1003.73859375 243.8359375 1002.9921875 C244.48820313 1002.43789063 245.14046875 1001.88359375 245.8125 1001.3125 C245.1525 1000.9825 244.4925 1000.6525 243.8125 1000.3125 Z " fill="#3F5A44" transform="translate(582.1875,-0.3125)"/>
<path d="M0 0 C0.94875 0.825 1.8975 1.65 2.875 2.5 C3.51953125 3.0465625 4.1640625 3.593125 4.828125 4.15625 C6.30877195 5.41320208 7.7771282 6.68474233 9.234375 7.96875 C21.23254066 18.16326984 36.31223169 23.83772871 52.171875 23.28125 C65.98180473 21.90788682 80.18813312 17.56964125 91.265625 9.00390625 C91.83796875 8.67261719 92.4103125 8.34132813 93 8 C93.99 8.33 94.98 8.66 96 9 C82.94471504 59.06998494 57.9056028 104.45710627 16.640625 136.9140625 C13.87709213 139.09708995 11.22834902 141.38652976 8.5625 143.6875 C-2.74381091 153.10942575 -15.09433433 161.23517289 -27.5 169.125 C-28.58503311 169.82669815 -28.58503311 169.82669815 -29.69198608 170.54257202 C-33.65264222 173.06088926 -37.53650887 175.30758283 -41.85229492 177.16162109 C-55.75393489 183.52302516 -61.04660984 192.65974473 -66.26048851 206.50753593 C-67.23119441 209.1550735 -68.16307338 211.81550783 -69.09350586 214.47741699 C-70.06236182 217.20287953 -71.09055031 219.90412011 -72.12189198 222.60643768 C-74.24931813 228.18525078 -76.33268695 233.78171565 -78.31958008 239.41210938 C-78.67006912 240.39739624 -79.02055817 241.38268311 -79.38166809 242.39782715 C-80.55042404 247.31639105 -78.32138349 250.50859786 -75.96484375 254.78515625 C-75.65459763 255.35003754 -75.3443515 255.91491882 -75.02470398 256.49691772 C-74.00120607 258.35525353 -72.97003898 260.20917401 -71.9375 262.0625 C-71.4066983 263.01916061 -71.4066983 263.01916061 -70.86517334 263.99514771 C-55.31484465 292.38505795 -55.31484465 292.38505795 -37 319 C-36.23300781 320.010625 -35.46601563 321.02125 -34.67578125 322.0625 C-30.34377911 327.59334145 -26.01602745 332.30278399 -20 336 C-19.42894531 336.35964844 -18.85789062 336.71929688 -18.26953125 337.08984375 C-14.90225353 338.44023223 -11.60569032 338.63943097 -8 339 C-12.01219051 330.57215848 -16.209077 322.42686517 -21.25 314.5625 C-29.46116228 301.61211263 -34.00770398 288.58537518 -31 273 C-30 272 -30 272 -27.43943024 271.88300323 C-25.73141361 271.88877003 -25.73141361 271.88877003 -23.9888916 271.89465332 C-22.70793358 271.89672539 -21.42697556 271.89879745 -20.10720062 271.90093231 C-18.69451314 271.90841061 -17.28182648 271.91604696 -15.86914062 271.92382812 C-14.41061764 271.92838277 -12.95209347 271.93257131 -11.49356842 271.936409 C-6.99566474 271.95018003 -2.4978487 271.97424354 2 272 C3.31574005 272.00703949 4.6314801 272.01407898 5.98709106 272.02133179 C14.28804669 272.06807238 22.58881139 272.13200282 30.88960075 272.20192909 C34.3634453 272.23090449 37.83730191 272.25836212 41.31115723 272.28601074 C47.8301797 272.3381114 54.34919098 272.39149092 60.86819887 272.4453826 C68.31498204 272.50687781 75.76177712 272.56686714 83.20857334 272.62675762 C98.47239562 272.74954845 113.73620269 272.87414052 129 273 C129.01309991 274.41297929 129.02234892 275.82599453 129.0300293 277.23901367 C129.03560349 278.02588058 129.04117767 278.8127475 129.04692078 279.62345886 C128.83192311 290.51310823 125.89318939 301.33394554 121 311 C120.50757813 311.98355469 120.01515625 312.96710938 119.5078125 313.98046875 C115.17887828 321.98589016 109.63283515 328.79615418 103 335 C102.34 335 101.68 335 101 335 C101 335.66 101 336.32 101 337 C103.35448675 337.05454409 105.70767875 337.0939279 108.0625 337.125 C110.02896484 337.15980469 110.02896484 337.15980469 112.03515625 337.1953125 C119.18055411 336.92892611 119.18055411 336.92892611 124.95141602 333.02783203 C127.0841016 330.42153178 129.0591662 327.75204168 131 325 C131.61875 324.12601563 132.2375 323.25203125 132.875 322.3515625 C134.78605855 319.59024485 136.64964534 316.80233509 138.5 314 C139.18433105 312.96818604 139.86866211 311.93637207 140.57373047 310.87329102 C148.33485645 299.09152231 155.68443313 287.06153408 163 275 C165.01552279 271.68201357 167.03152542 268.36432062 169.04833984 265.04711914 C170.28371529 263.01365093 171.51719351 260.97902859 172.74853516 258.94311523 C173.29429199 258.04278564 173.84004883 257.14245605 174.40234375 256.21484375 C174.88179443 255.42198975 175.36124512 254.62913574 175.85522461 253.81225586 C177 252 177 252 178 251 C178.50415093 234.14695461 167.70420721 218.04914203 157 206 C156.38511719 205.30132813 155.77023437 204.60265625 155.13671875 203.8828125 C143.42126302 191.38967127 127.38806814 183.23462664 112.6015625 174.984375 C86.2036518 160.20600781 86.2036518 160.20600781 78.0625 146.8125 C74.31158985 133.35335183 79.21829424 121.7548686 84.65332031 109.53125 C96.00611746 83.97716564 104.23898703 57.09981283 111 30 C111.27956543 28.88496094 111.55913086 27.76992188 111.84716797 26.62109375 C112.56673203 23.74787825 113.28429891 20.87417974 114 18 C135.10760383 22.15343172 167.43215928 30.83290131 181.71875 48.07421875 C183 50 183 50 183 52 C183.59554688 52.268125 184.19109375 52.53625 184.8046875 52.8125 C215.95334875 69.6615979 230.14837353 147.1356761 239.57226562 178.67759705 C242.78459029 189.54957734 245.76169014 200.48544105 248.6875 211.4375 C248.94411407 212.39575684 249.20072815 213.35401367 249.46511841 214.34130859 C256.21203227 239.63888984 260.62270279 263.83233058 247.19628906 287.82006836 C223.33525002 328.28269177 167.88604768 351.48375004 128 372 C127.22865723 372.39735352 126.45731445 372.79470703 125.66259766 373.20410156 C87.09751615 393.00194039 47.65852595 400.60809565 5.37817383 387.52026367 C-3.40798277 384.65596815 -11.69615701 381.03866855 -20 377 C-20.59097473 376.71322388 -21.18194946 376.42644775 -21.79083252 376.13098145 C-40.5419179 367.02177767 -59.02054322 357.56735092 -77 347 C-77.86753906 346.49662109 -78.73507812 345.99324219 -79.62890625 345.47460938 C-110.91442637 327.31408763 -147.66447043 304.81012493 -157.9375 267.875 C-159.05127846 262.20169098 -159.33695971 256.57856485 -159.4375 250.8125 C-159.45997803 250.01247559 -159.48245605 249.21245117 -159.50561523 248.38818359 C-159.43751679 230.55337619 -152.36259984 212.58148813 -147.1875 195.75 C-146.81450775 194.53023468 -146.4415155 193.31046936 -146.05722046 192.05374146 C-136.44396409 160.62025565 -126.47134089 129.31941625 -115.375 98.375 C-115.08654205 97.56988983 -114.79808411 96.76477966 -114.50088501 95.93527222 C-104.77433678 68.87434402 -94.01476709 48.76953717 -67.01611328 36.03100586 C-58.44449408 32.15374094 -49.62401752 29.04513032 -40.75 25.9375 C-16.92714342 17.82782036 -16.92714342 17.82782036 0 0 Z M24 367 C39.92910054 371.97784392 57.42400801 370.49740894 73 365 C68.97422059 359.87628075 62.82942183 357.54706026 56.51171875 356.64453125 C46.46335935 356.30798333 31.22744985 359.77255015 24 367 Z " fill="#BA7E5F" transform="translate(522,420)"/>
<path d="M0 0 C33.33 0 66.66 0 101 0 C101 36.96 101 73.92 101 112 C90.44 112 79.88 112 69 112 C69 127.18 69 142.36 69 158 C81.21 158 93.42 158 106 158 C106.33 166.58 106.66 175.16 107 184 C126.35661114 161.60163568 139.65576058 136.22617461 151 109 C138.79 109 126.58 109 114 109 C114 100.75 114 92.5 114 84 C132.81 84 151.62 84 171 84 C171 78.06 171 72.12 171 66 C154.5 66 138 66 121 66 C121 58.08 121 50.16 121 42 C137.5 42 154 42 171 42 C171 36.06 171 30.12 171 24 C152.52 24 134.04 24 115 24 C115 16.08 115 8.16 115 0 C143.05 0 171.1 0 200 0 C200 35.97 200 71.94 200 109 C187.625 109.495 187.625 109.495 175 110 C179.95 111.32 184.9 112.64 190 114 C189.67 115.32 189.34 116.64 189 118 C187.91332031 118.39316406 186.82664062 118.78632813 185.70703125 119.19140625 C182.31407589 120.4749227 181.19934316 121.83146931 179.63671875 125.08984375 C178.96246317 126.69565402 178.31322242 128.31216352 177.6875 129.9375 C177.02497675 131.55087866 176.36222407 133.16416313 175.69921875 134.77734375 C175.41908936 135.49140381 175.13895996 136.20546387 174.8503418 136.94116211 C173.99831731 139.00407411 172.99815346 141.00369308 172 143 C189.82 143.495 189.82 143.495 208 144 C208.99 141.03 208.99 141.03 210 138 C210.66045215 136.4406659 211.34606648 134.89170596 212.05859375 133.35546875 C212.44466797 132.51306641 212.83074219 131.67066406 213.22851562 130.80273438 C214.02935409 129.07038751 214.83142173 127.33860831 215.63476562 125.60742188 C218.13141048 120.15302139 220.20012723 114.72371115 222 109 C218.7 109 215.4 109 212 109 C212 100.75 212 92.5 212 84 C231.14 84 250.28 84 270 84 C270 78.06 270 72.12 270 66 C252.84 66 235.68 66 218 66 C218 58.08 218 50.16 218 42 C235.16 42 252.32 42 270 42 C270 36.06 270 30.12 270 24 C250.86 24 231.72 24 212 24 C212 16.08 212 8.16 212 0 C240.71 0 269.42 0 299 0 C299 35.97 299 71.94 299 109 C277.22 109.33 255.44 109.66 233 110 C241.25 112.64 249.5 115.28 258 118 C258 118.99 258 119.98 258 121 C254.77208445 123.1519437 253.71599191 123.20086443 250 123 C249.34 124.98 248.68 126.96 248 129 C245.36 133.62 242.72 138.24 240 143 C270.195 143.495 270.195 143.495 301 144 C301 152.91 301 161.82 301 171 C279.55 171 258.1 171 236 171 C236 176.94 236 182.88 236 189 C253.82 189 271.64 189 290 189 C290 196.59 290 204.18 290 212 C272.18 212 254.36 212 236 212 C236 218.27 236 224.54 236 231 C253.82 231 271.64 231 290 231 C290 238.59 290 246.18 290 254 C272.18 254 254.36 254 236 254 C236 260.27 236 266.54 236 273 C260.42 273 284.84 273 310 273 C310 282.24 310 291.48 310 301 C261.16 301 212.32 301 162 301 C162 304.3 162 307.6 162 311 C152.1 311 142.2 311 132 311 C131.67 276.02 131.34 241.04 131 205 C128.69 207.64 126.38 210.28 124 213 C122.03735037 215.02468027 120.07302039 217.02563005 118.0625 219 C117.56943359 219.48855469 117.07636719 219.97710937 116.56835938 220.48046875 C115.38126771 221.65603525 114.19099502 222.82838826 113 224 C108.70039669 222.39919304 106.1382162 219.09585154 103.1875 215.75 C99.8644919 212.048916 96.60623914 208.47477382 92.75 205.3125 C91.38875 204.1678125 91.38875 204.1678125 90 203 C90 202.34 90 201.68 90 201 C91.57421875 199.44921875 91.57421875 199.44921875 93.6875 197.6875 C97.00203132 194.90978543 99.90873811 192.09126189 103 189 C86.17 188.505 86.17 188.505 69 188 C69 206.15 69 224.3 69 243 C81.70050072 240.37042393 81.70050072 240.37042393 94.3996582 237.734375 C95.9916508 237.40601518 97.58368876 237.07787514 99.17578125 236.75 C100.00251343 236.57726562 100.82924561 236.40453125 101.68103027 236.2265625 C104.83604634 235.57908325 107.76991617 235 111 235 C111.3389231 238.35362609 111.67011964 241.70797332 112 245.0625 C112.14308594 246.47692383 112.14308594 246.47692383 112.2890625 247.91992188 C112.78225278 252.97512222 113.11270932 257.92103608 113 263 C107.09371184 265.06202355 101.19500517 266.7907073 95.10644531 268.22070312 C94.26769867 268.42114731 93.42895203 268.62159149 92.56478882 268.82810974 C89.82013596 269.48301201 87.07416421 270.13218767 84.328125 270.78125 C82.39906852 271.24026006 80.47009447 271.69961667 78.54119873 272.15930176 C73.47708903 273.36511933 68.41182433 274.56601441 63.34631348 275.76593018 C58.2249128 276.98010494 53.10472229 278.199361 47.984375 279.41796875 C41.32176861 281.00265556 34.65915192 282.58730764 27.9952507 284.16654205 C26.30027629 284.56846015 24.60554715 284.97141433 22.91109085 285.37551117 C19.26993348 286.2411413 15.62839034 287.08956387 11.96765137 287.86865234 C10.80109009 288.12018066 9.63452881 288.37170898 8.43261719 288.63085938 C7.44461121 288.83497437 6.45660522 289.03908936 5.43865967 289.24938965 C1.84306558 290.3561001 0.33244296 292.12332035 -2 295 C-2.99 295 -3.98 295 -5 295 C-6.57468082 290.66125179 -8.14100313 286.31961126 -9.69970703 281.97509766 C-10.23095561 280.49803862 -10.76446589 279.02179099 -11.30029297 277.54638672 C-12.07076701 275.42365211 -12.83301936 273.29811776 -13.59375 271.171875 C-13.83436157 270.51443298 -14.07497314 269.85699097 -14.32287598 269.17962646 C-15.49801232 265.86949073 -16 263.57166357 -16 260 C-14.62705778 259.65828994 -13.25149882 259.32708883 -11.875 259 C-11.10929687 258.814375 -10.34359375 258.62875 -9.5546875 258.4375 C-7 258 -7 258 -1 258 C-1 219.06 -1 180.12 -1 140 C29 142 29 142 32 143 C31.375 144.9375 31.375 144.9375 30 147 C28.02 147.33 26.04 147.66 24 148 C24 182.32 24 216.64 24 252 C29.28 251.01 34.56 250.02 40 249 C40.33 203.79 40.66 158.58 41 112 C27.47 112 13.94 112 0 112 C0 75.04 0 38.08 0 0 Z M28 28 C28 46.48 28 64.96 28 84 C42.52 84 57.04 84 72 84 C72 65.52 72 47.04 72 28 C57.48 28 42.96 28 28 28 Z M162 171 C162 176.94 162 182.88 162 189 C176.52 189 191.04 189 206 189 C206 183.06 206 177.12 206 171 C191.48 171 176.96 171 162 171 Z M162 212 C162 218.27 162 224.54 162 231 C176.52 231 191.04 231 206 231 C206 224.73 206 218.46 206 212 C191.48 212 176.96 212 162 212 Z M162 254 C162 260.27 162 266.54 162 273 C176.52 273 191.04 273 206 273 C206 266.73 206 260.46 206 254 C191.48 254 176.96 254 162 254 Z " fill="#3F5A44" transform="translate(2371,245)"/>
<path d="M0 0 C12.87 0.66 25.74 1.32 39 2 C39.33 2.99 39.66 3.98 40 5 C38.25 7 38.25 7 36 9 C34.68 9 33.36 9 32 9 C32 32.1 32 55.2 32 79 C49.28981132 78.96067793 49.28981132 78.96067793 66.57958984 78.90991211 C68.79003856 78.90698426 71.00048783 78.90443777 73.2109375 78.90234375 C74.85412964 78.8946698 74.85412964 78.8946698 76.53051758 78.88684082 C86.04574978 78.88580902 95.50692672 79.4079992 105 80 C100.75203596 233.80106251 100.75203596 233.80106251 96 271 C95.88688477 271.9060498 95.77376953 272.81209961 95.65722656 273.74560547 C93.71441427 288.70526013 90.91036119 302.7270698 79 313 C67.45113008 321.55546756 53.522925 320.25542554 39.875 320.125 C38.04167155 320.1149517 36.20833777 320.10582912 34.375 320.09765625 C29.91653366 320.07578564 25.45832642 320.04135739 21 320 C20.80736572 319.13769775 20.61473145 318.27539551 20.41625977 317.38696289 C18.48328419 308.82879787 18.48328419 308.82879787 15.9375 300.4375 C15.61652344 299.48746094 15.29554688 298.53742188 14.96484375 297.55859375 C14.06782138 295.02574581 14.06782138 295.02574581 12.87890625 292.84765625 C12 291 12 291 12 288 C13.18029785 288.02618408 14.3605957 288.05236816 15.57666016 288.0793457 C19.97099729 288.17009567 24.36525221 288.22733906 28.76025391 288.2746582 C30.65948431 288.29974604 32.5586187 288.33382468 34.45751953 288.37719727 C37.19327521 288.4381033 39.9277507 288.46626653 42.6640625 288.48828125 C43.50804596 288.51408768 44.35202942 288.5398941 45.22158813 288.56648254 C49.43062975 288.56846857 52.15364991 288.32055554 55.4987793 285.6315918 C67.14534502 273.37797228 65.56783423 244.62503827 66.5625 228.625 C66.62314636 227.68800262 66.68379272 226.75100525 66.74627686 225.78561401 C69.20602562 187.57839136 70.0778469 149.26935369 71 111 C58.13 111 45.26 111 32 111 C32.04125 114.50625 32.0825 118.0125 32.125 121.625 C32.34516046 193.48824636 17.02166636 265.82748186 -34.53027344 318.55175781 C-36.26302022 320.25917541 -37.87712328 321.7936075 -40 323 C-43.05732183 321.98089272 -44.18170366 320.91263236 -46.359375 318.65625 C-52.38659378 312.57162914 -58.56655944 307.26734551 -66 303 C-65.57847656 302.51789063 -65.15695313 302.03578125 -64.72265625 301.5390625 C-63.90087891 300.59160156 -63.90087891 300.59160156 -63.0625 299.625 C-62.51722656 298.99851562 -61.97195312 298.37203125 -61.41015625 297.7265625 C-59.93041376 296.04367666 -59.93041376 296.04367666 -59 294 C-60.57898323 294.19005867 -60.57898323 294.19005867 -62.18986511 294.38395691 C-72.34444985 295.60596557 -82.49930006 296.82574855 -92.65438366 298.04360485 C-97.86924221 298.66906649 -103.08401928 299.29518853 -108.29858398 299.9230957 C-114.35895169 300.65273365 -120.41960135 301.37999359 -126.48046875 302.10546875 C-127.48369045 302.22564236 -128.48691216 302.34581596 -129.52053452 302.4696312 C-141.00408505 303.84284473 -152.49085295 305.17843985 -163.98681641 306.44384766 C-165.55875684 306.61698408 -165.55875684 306.61698408 -167.16245365 306.7936182 C-172.1805306 307.34499204 -177.19912458 307.89103486 -182.21855164 308.42997742 C-184.00548575 308.6242727 -185.79241726 308.81859201 -187.5793457 309.01293945 C-188.39309725 309.09867785 -189.20684879 309.18441624 -190.04525948 309.27275276 C-196.13117575 309.76685409 -196.13117575 309.76685409 -201 313.0625 C-203 315 -203 315 -206 315 C-207.28883264 310.80291498 -208.57035715 306.60368883 -209.84521484 302.40234375 C-210.2797446 300.97400134 -210.71625053 299.54625854 -211.15478516 298.11914062 C-211.7855088 296.06535569 -212.40904743 294.00950512 -213.03125 291.953125 C-213.40830078 290.71723633 -213.78535156 289.48134766 -214.17382812 288.20800781 C-215 285 -215 285 -215 281 C-206.22048397 280.2151072 -197.44076034 279.4325902 -188.66076374 278.65309143 C-184.58371482 278.29105114 -180.50674166 277.92819807 -176.42993164 277.56347656 C-172.49437818 277.21142253 -168.55863896 276.86151784 -164.62276268 276.51309204 C-163.12243039 276.37989567 -161.62216622 276.24592969 -160.12197304 276.11117554 C-158.01809624 275.92232928 -155.91399221 275.73623983 -153.80981445 275.55078125 C-152.61290482 275.44419189 -151.41599518 275.33760254 -150.18281555 275.2277832 C-147.46111485 275.03300041 -144.72866177 275 -142 275 C-142 266.75 -142 258.5 -142 250 C-162.79 250 -183.58 250 -205 250 C-205 241.42 -205 232.84 -205 224 C-184.21 224 -163.42 224 -142 224 C-142 218.39 -142 212.78 -142 207 C-162.13 207 -182.26 207 -203 207 C-203 172.02 -203 137.04 -203 101 C-182.87 101 -162.74 101 -142 101 C-142 95.06 -142 89.12 -142 83 C-165.76 83 -189.52 83 -214 83 C-214 74.42 -214 65.84 -214 57 C-190.24 57 -166.48 57 -142 57 C-142 51.39 -142 45.78 -142 40 C-144.21332031 40.20496094 -146.42664062 40.40992188 -148.70703125 40.62109375 C-167.14139594 42.29851752 -185.48778771 43.57462099 -204 44 C-204.32613281 42.84242188 -204.65226562 41.68484375 -204.98828125 40.4921875 C-205.42937936 38.95303666 -205.87080289 37.41397905 -206.3125 35.875 C-206.52583984 35.11445313 -206.73917969 34.35390625 -206.95898438 33.5703125 C-208.25040641 29.09852278 -209.84988393 25.14890433 -212 21 C-212 20.34 -212 19.68 -212 19 C-210.96858887 18.93530518 -209.93717773 18.87061035 -208.87451172 18.80395508 C-141.37626479 14.53104083 -141.37626479 14.53104083 -74.93383789 2.43554688 C-66.67715541 0.46239943 -66.67715541 0.46239943 -63 2 C-60.5703125 4.00390625 -60.5703125 4.00390625 -58.125 6.5625 C-57.25875 7.46355469 -56.3925 8.36460937 -55.5 9.29296875 C-52.7665499 12.25278268 -50.08693486 15.24705747 -47.47265625 18.3125 C-46.23684386 19.72860333 -44.90866507 21.06335199 -43.5625 22.375 C-42 24 -42 24 -42 26 C-43.34904419 26.16544312 -43.34904419 26.16544312 -44.7253418 26.33422852 C-53.47795384 27.44883351 -62.1202102 28.86588752 -70.78311157 30.54434204 C-74.26000391 31.21792817 -77.73933078 31.87867249 -81.21875 32.5390625 C-81.89517044 32.66765152 -82.57159088 32.79624054 -83.26850891 32.9287262 C-89.48366017 34.10407954 -95.71366247 35.16869622 -101.9621582 36.15014648 C-104.75597375 36.59383899 -107.30782766 37.10260922 -110 38 C-110.33 44.27 -110.66 50.54 -111 57 C-86.58 57 -62.16 57 -37 57 C-37 64.59 -37 72.18 -37 80 C-24.79 80 -12.58 80 0 80 C0 53.6 0 27.2 0 0 Z M-111 83 C-111 88.94 -111 94.88 -111 101 C-89.55 101 -68.1 101 -46 101 C-46 135.98 -46 170.96 -46 207 C-67.45 207 -88.9 207 -111 207 C-111 212.61 -111 218.22 -111 224 C-88.89 224 -66.78 224 -44 224 C-44 232.58 -44 241.16 -44 250 C-66.11 250 -88.22 250 -111 250 C-111 257.26 -111 264.52 -111 272 C-102.51574008 272.06069718 -102.51574008 272.06069718 -94.16479492 271.55688477 C-93.16393356 271.4600087 -92.1630722 271.36313263 -91.13188171 271.26332092 C-89.5719323 271.10397316 -89.5719323 271.10397316 -87.98046875 270.94140625 C-86.32716301 270.77849342 -86.32716301 270.77849342 -84.64045715 270.61228943 C-82.33012226 270.38361385 -80.02003875 270.15238525 -77.71020508 269.91870117 C-74.18039958 269.56178204 -70.64987381 269.21284489 -67.11914062 268.86523438 C-64.86453727 268.64108784 -62.60997832 268.41649411 -60.35546875 268.19140625 C-58.7803376 268.03509483 -58.7803376 268.03509483 -57.17338562 267.87562561 C-52.41646716 267.39260271 -47.7048746 266.87417082 -43 266 C-43 269.3 -43 272.6 -43 276 C-10.3313615 246.83429243 -2.87114707 185.53660456 -0.16552734 144.58886719 C0.1337853 138.09934524 0.10359739 131.61984267 0.0625 125.125 C0.041875 120.46375 0.02125 115.8025 0 111 C-12.21 111 -24.42 111 -37 111 C-37 101.76 -37 92.52 -37 83 C-61.42 83 -85.84 83 -111 83 Z M-175 124 C-175 130.27 -175 136.54 -175 143 C-164.11 143 -153.22 143 -142 143 C-142 136.73 -142 130.46 -142 124 C-152.89 124 -163.78 124 -175 124 Z M-111 124 C-111 130.27 -111 136.54 -111 143 C-99.12 143 -87.24 143 -75 143 C-75 136.73 -75 130.46 -75 124 C-86.88 124 -98.76 124 -111 124 Z M-175 165 C-175 171.27 -175 177.54 -175 184 C-164.11 184 -153.22 184 -142 184 C-142 177.73 -142 171.46 -142 165 C-152.89 165 -163.78 165 -175 165 Z M-111 165 C-111 171.27 -111 177.54 -111 184 C-99.12 184 -87.24 184 -75 184 C-75 177.73 -75 171.46 -75 165 C-86.88 165 -98.76 165 -111 165 Z " fill="#3F5A44" transform="translate(2918,234)"/>
<path d="M0 0 C40.08333333 1.54166667 40.08333333 1.54166667 43 3 C41.63016497 6.16115776 41.0109362 6.9927092 38 9 C37.01 9 36.02 9 35 9 C35 28.14 35 47.28 35 67 C75.59 67 116.18 67 158 67 C158 77.56 158 88.12 158 99 C117.41 99 76.82 99 35 99 C35 122.1 35 145.2 35 169 C71.3 169 107.6 169 145 169 C145 179.56 145 190.12 145 201 C108.7 201 72.4 201 35 201 C35 227.4 35 253.8 35 281 C81.2 281 127.4 281 175 281 C175 291.89 175 302.78 175 314 C71.05 314 -32.9 314 -140 314 C-140 303.11 -140 292.22 -140 281 C-93.8 281 -47.6 281 0 281 C0 254.6 0 228.2 0 201 C-33.33 201 -66.66 201 -101 201 C-101 190.44 -101 179.88 -101 169 C-67.67 169 -34.34 169 0 169 C0 145.9 0 122.8 0 99 C-25.74 99.33 -51.48 99.66 -78 100 C-82.62 108.58 -87.24 117.16 -92 126 C-95.56426812 131.78203494 -99.11433477 137.44769907 -103 143 C-103.51900879 143.74620605 -104.03801758 144.49241211 -104.57275391 145.26123047 C-106.17443136 147.54339353 -107.79967264 149.80617139 -109.4375 152.0625 C-109.9339502 152.76068848 -110.43040039 153.45887695 -110.94189453 154.17822266 C-112.37109375 156.09765625 -112.37109375 156.09765625 -115 159 C-119.13164196 159 -119.55766836 158.95054803 -122.5390625 156.5859375 C-123.19777344 156.07450195 -123.85648438 155.56306641 -124.53515625 155.03613281 C-125.22480469 154.48795898 -125.91445312 153.93978516 -126.625 153.375 C-132.52809012 148.80252445 -138.43734511 144.5968397 -145 141 C-144.40468513 137.89400936 -143.48026652 136.02955728 -141.48046875 133.59375 C-140.95888184 132.9430957 -140.43729492 132.29244141 -139.89990234 131.62207031 C-139.05226318 130.57164551 -139.05226318 130.57164551 -138.1875 129.5 C-130.87509339 120.16905396 -124.79133255 110.33048509 -119 100 C-118.52820312 99.15953125 -118.05640625 98.3190625 -117.5703125 97.453125 C-101.67785721 68.82914475 -90.40827644 37.58230661 -82 6 C-77.22551584 4.48595266 -73.34930466 5.69796141 -68.70703125 7.0546875 C-67.91979172 7.27569122 -67.13255219 7.49669495 -66.32145691 7.72439575 C-63.81540487 8.43091569 -61.31412102 9.1529669 -58.8125 9.875 C-57.11811329 10.35383786 -55.42345427 10.83171326 -53.72851562 11.30859375 C-41.40601067 14.79699466 -41.40601067 14.79699466 -39 16 C-39.5625 17.9375 -39.5625 17.9375 -41 20 C-44.625 20.75 -44.625 20.75 -48 21 C-48.22695557 22.01876221 -48.22695557 22.01876221 -48.45849609 23.05810547 C-50.55997313 31.99496003 -53.50871285 40.50677064 -56.625 49.125 C-57.13330596 50.54669867 -57.64112137 51.96857282 -58.1484375 53.390625 C-61.8126818 63.6253636 -61.8126818 63.6253636 -63 66 C-42.21 66.33 -21.42 66.66 0 67 C0 44.89 0 22.78 0 0 Z " fill="#3F5A44" transform="translate(1471,231)"/>
<path d="M0 0 C7.5667177 7.11746704 14.74800156 14.28767655 20.09960938 23.25488281 C20.4415332 23.80128418 20.78345703 24.34768555 21.13574219 24.91064453 C35.22453415 47.50760307 40.3285743 72.12511635 40.34960938 98.50488281 C40.35028412 99.26332489 40.35095886 100.02176697 40.35165405 100.80319214 C40.30037071 137.1257015 30.0436816 169.5042077 4.88867188 196.52832031 C-16.45346402 217.39220106 -45.07359539 229.56024217 -73.21289062 238.19238281 C-74.65353882 238.63432983 -74.65353882 238.63432983 -76.12329102 239.08520508 C-81.04996295 240.54967973 -85.78890014 241.69790661 -90.90039062 242.25488281 C-91.37347656 241.60003906 -91.8465625 240.94519531 -92.33398438 240.27050781 C-96.77875387 234.13620606 -101.29047437 228.05750511 -105.84570312 222.00488281 C-108.24846135 218.7890239 -110.58841208 215.53640075 -112.90039062 212.25488281 C-109.09023364 210.88747456 -105.24938183 209.80652945 -101.33007812 208.80957031 C-76.22041852 202.40948388 -52.15238867 193.88057468 -31.90039062 177.25488281 C-31.16433594 176.6709375 -30.42828125 176.08699219 -29.66992188 175.48535156 C-12.16516969 161.02784831 -1.26454936 137.60079759 1.09960938 115.25488281 C1.4103357 110.00276426 1.51584061 104.76411947 1.53710938 99.50488281 C1.54718018 98.22701904 1.55725098 96.94915527 1.56762695 95.63256836 C1.33484013 69.93851602 -8.01706211 45.71671563 -25.90039062 27.25488281 C-45.38051466 8.80661125 -72.36704067 1.15992484 -98.52539062 -0.43261719 C-99.30817383 -0.48119873 -100.09095703 -0.52978027 -100.89746094 -0.57983398 C-104.2142942 -0.75017945 -106.72078938 -0.80498427 -109.90039062 0.25488281 C-101.98039062 2.23488281 -94.06039062 4.21488281 -85.90039062 6.25488281 C-87.99457925 10.44326006 -88.86086943 11.28438467 -92.90039062 13.25488281 C-93.89039062 13.25488281 -94.88039063 13.25488281 -95.90039062 13.25488281 C-95.87388428 14.38651855 -95.84737793 15.5181543 -95.82006836 16.68408203 C-95.82409221 21.34293896 -96.43834812 25.79691815 -97.18554688 30.38769531 C-97.321689 31.24941345 -97.45783112 32.11113159 -97.59809875 32.9989624 C-98.044042 35.7941434 -98.50175941 38.58716918 -98.96289062 41.37988281 C-99.12033752 42.33928772 -99.27778442 43.29869263 -99.44000244 44.28717041 C-108.05668552 96.47049809 -121.28085138 161.2135389 -165.75195312 195.45019531 C-180.82721818 205.4858905 -197.58609597 209.70524174 -215.46289062 206.12988281 C-231.02105955 202.11966266 -242.60961839 191.78556099 -250.90039062 178.25488281 C-256.35979167 168.32971404 -259.73607244 158.35300981 -261.90039062 147.25488281 C-262.12597656 146.1346875 -262.3515625 145.01449219 -262.58398438 143.86035156 C-269.12270758 104.4025391 -259.69559501 62.95820348 -236.90039062 30.25488281 C-211.85396022 -3.97990287 -175.62519614 -26.05554451 -133.76293945 -32.9074707 C-88.34372423 -39.81617298 -34.85250267 -32.00484186 0 0 Z M-144.33789062 4.37988281 C-145.04091309 4.60579102 -145.74393555 4.83169922 -146.46826172 5.06445312 C-177.09780267 15.13878133 -202.14501697 35.72791992 -217.18261719 64.41748047 C-220.9725301 72.05856139 -223.55851485 80.07256259 -225.90039062 88.25488281 C-226.24199219 89.38410156 -226.58359375 90.51332031 -226.93554688 91.67675781 C-232.10653493 112.16830117 -231.82136642 139.21978522 -221.31445312 158.10644531 C-217.59917475 163.75120527 -213.57152709 169.24095482 -206.90039062 171.25488281 C-197.65836653 172.28758423 -191.65783587 171.02464925 -184.43554688 165.30175781 C-145.18503037 131.54041128 -137.45938956 63.48314834 -132.16210938 14.98144531 C-131.86340542 10.72825769 -131.8398329 6.51594446 -131.90039062 2.25488281 C-136.35131591 1.96441936 -140.14962747 3.02595768 -144.33789062 4.37988281 Z " fill="#3F5A44" transform="translate(2288.900390625,297.7451171875)"/>
<path d="M0 0 C14.00383291 11.97779275 24.29390165 28.1463207 26.09082031 46.79443359 C27.08909056 63.73270968 23.57495233 79.037646 12.375 92.2421875 C6.60217651 98.25771228 0.07369926 102.46522695 -7.125 106.5546875 C-8.05699219 107.09738281 -8.98898437 107.64007812 -9.94921875 108.19921875 C-32.76155573 120.5328503 -59.86792411 124.76176167 -85.1875 128.6796875 C-86.30907501 128.85433029 -86.30907501 128.85433029 -87.45330811 129.03250122 C-92.28723426 129.77748331 -97.12802027 130.45698994 -101.97412682 131.11753559 C-104.12958961 131.41658434 -106.28378827 131.7248501 -108.43680763 132.04101086 C-131.08742082 135.34326909 -153.3428261 136.17093202 -176.21148324 136.12492108 C-179.99221525 136.11971 -183.77288495 136.12718083 -187.5536105 136.13439316 C-196.46784676 136.15119111 -205.38191089 136.14801961 -214.29614258 136.13110352 C-223.44614284 136.11406412 -232.59567007 136.13022315 -241.74561912 136.1623264 C-249.67255651 136.18906868 -257.599347 136.19628984 -265.52632493 136.18781132 C-270.23125842 136.18291253 -274.9359055 136.1849362 -279.64080238 136.20559883 C-284.0466212 136.22403939 -288.4517555 136.2178962 -292.85753822 136.19339943 C-294.46346705 136.18842481 -296.06944905 136.19179331 -297.67533493 136.20454788 C-307.43366279 136.27588305 -315.30579803 135.20091588 -324.125 130.5546875 C-322.71707449 127.73883649 -321.21498848 127.70549911 -318.26171875 126.70703125 C-317.23949219 126.35374756 -316.21726562 126.00046387 -315.1640625 125.63647461 C-314.05804688 125.25885986 -312.95203125 124.88124512 -311.8125 124.4921875 C-301.0578881 120.72209514 -290.69225905 116.47397108 -280.38916016 111.61474609 C-278.24170663 110.60932845 -276.08335078 109.63404657 -273.91796875 108.66796875 C-262.4863527 103.51532794 -251.65013838 97.38264959 -240.80371094 91.10498047 C-238.4594832 89.74826828 -236.10975829 88.40185526 -233.7578125 87.05859375 C-215.13396103 76.3441477 -197.19653187 64.45627492 -179.54101562 52.22607422 C-158.84812225 37.91084099 -138.09680112 23.846671 -116.125 11.5546875 C-115.42874512 11.15797852 -114.73249023 10.76126953 -114.01513672 10.35253906 C-81.55056513 -8.09482169 -33.3742309 -26.11533568 0 0 Z " fill="#7E4238" transform="translate(805.125,777.4453125)"/>
<path d="M0 0 C1.09570312 0.44657959 2.19140625 0.89315918 3.3203125 1.35327148 C11.38772881 4.6844065 19.23946601 8.29148345 26.9453125 12.38623047 C28.8613809 13.40088489 30.78856426 14.39140262 32.71875 15.37890625 C41.28551867 19.79753362 49.62583115 24.55717113 57.9375 29.4375 C92.30908949 49.56927878 126.7139266 61.28417463 165.8125 68.375 C162.47844093 73.07732227 158.50923566 76.12704492 153.875 79.4375 C153.08649658 80.00186768 152.29799316 80.56623535 151.4855957 81.14770508 C113.51404239 107.80921578 69.99471646 121.19150549 24.8125 129.375 C23.08 129.69597656 23.08 129.69597656 21.3125 130.0234375 C5.00573379 131.66139393 -12.27162062 131.55488998 -28.1875 127.375 C-29.35104004 127.07698486 -29.35104004 127.07698486 -30.53808594 126.77294922 C-48.96911112 121.93887876 -65.95656287 114.31691973 -82.1875 104.375 C-82.94804687 103.92125 -83.70859375 103.4675 -84.4921875 103 C-93.01537921 96.93906367 -97.43346962 82.25005293 -99.1875 72.375 C-101.84305613 53.74147587 -98.19724001 35.78863602 -87.1875 20.375 C-74.6125889 4.31780582 -57.5211899 -3.70868971 -37.5 -6.3125 C-23.94670148 -7.49748785 -12.54942805 -5.19027976 0 0 Z " fill="#7E4238" transform="translate(410.1875,770.625)"/>
<path d="M0 0 C13.36280891 10.95426103 20.76518178 27.49289802 22.76171875 44.40234375 C23.90539564 53.90525902 26.60486268 61.47298057 30.78125 70.03515625 C35.28939634 79.44346166 36.32349312 86.05074773 33.4296875 96.2109375 C30.21390809 105.23663807 23.86795664 112.74315816 18.26904297 120.41113281 C15.11862488 124.72620731 12.05713193 129.0663781 9.12890625 133.53515625 C-1.87607155 150.19195981 -13.50073057 165.96536118 -33.93359375 170.59765625 C-35.49071831 170.82552814 -37.05404598 171.01550569 -38.62109375 171.16015625 C-39.34425781 171.22976563 -40.06742188 171.299375 -40.8125 171.37109375 C-49.52101584 171.776141 -58.72729594 169.88536522 -65.5 164.2109375 C-73.00614436 156.9536156 -79.77798703 149.09882143 -86.2890625 140.9453125 C-88.41011016 138.41213498 -90.61625882 136.05103958 -92.91137695 133.67993164 C-104.94184467 121.17480553 -119.18307233 102.83581154 -121.62109375 85.16015625 C-121.26406983 78.65820141 -119.4344176 74.38734488 -116.37109375 68.72265625 C-111.92929822 60.02720272 -109.99191543 51.52910847 -108.29174805 41.96289062 C-106.93724129 34.42212037 -105.27201611 27.95615028 -101.62109375 21.16015625 C-101.193125 20.32226562 -100.76515625 19.484375 -100.32421875 18.62109375 C-91.95266067 3.43000803 -78.77321324 -7.2311644 -62.2421875 -12.18359375 C-61.37722656 -12.40015625 -60.51226563 -12.61671875 -59.62109375 -12.83984375 C-58.88632812 -13.02933594 -58.1515625 -13.21882812 -57.39453125 -13.4140625 C-36.56388169 -16.61200729 -17.14731885 -12.03634453 0 0 Z " fill="#BB7E5E" transform="translate(613.62109375,254.83984375)"/>
<path d="M0 0 C3.5477161 0.32674875 7.09567193 0.55697757 10.65136719 0.78027344 C17.48236112 1.22006655 24.30548097 1.73211699 31.12792969 2.28808594 C29.46071649 6.05879243 27.79314862 7.35902334 24.12792969 9.28808594 C24.76408203 9.90683594 24.76408203 9.90683594 25.41308594 10.53808594 C28.52477882 13.60190662 31.50833556 16.69169787 34.31542969 20.03808594 C39.1289097 25.60199713 44.62334518 30.42803089 50.12792969 35.28808594 C50.62534668 35.73023438 51.12276367 36.17238281 51.63525391 36.62792969 C83.88287151 65.14205794 122.60882039 88.46276753 162.12792969 105.28808594 C162.79727539 105.57329102 163.46662109 105.85849609 164.15625 106.15234375 C167.4694476 107.55757877 170.79162636 108.93864618 174.12792969 110.28808594 C173.31542969 111.37141927 172.50292969 112.4547526 171.69042969 113.53808594 C171.14386719 114.26898438 170.59730469 114.99988281 170.03417969 115.75292969 C168.68820147 117.54297038 167.33314463 119.32620193 165.97167969 121.10449219 C161.0001577 127.63387123 156.41295534 134.28875143 152.12792969 141.28808594 C148.20126931 140.67693603 145.14071553 139.46756623 141.61230469 137.65527344 C140.00162109 136.82854126 140.00162109 136.82854126 138.35839844 135.98510742 C137.20984375 135.38384033 136.06128906 134.78257324 134.87792969 134.16308594 C134.28512207 133.85396271 133.69231445 133.54483948 133.08154297 133.22634888 C113.25694394 122.86544951 94.44140947 111.12194185 76.12792969 98.28808594 C75.79792969 105.87808594 75.46792969 113.46808594 75.12792969 121.28808594 C27.93792969 121.28808594 -19.25207031 121.28808594 -67.87207031 121.28808594 C-67.87207031 113.36808594 -67.87207031 105.44808594 -67.87207031 97.28808594 C-70.73894531 99.32996094 -73.60582031 101.37183594 -76.55957031 103.47558594 C-98.38974954 118.82715457 -121.44467787 132.48219894 -145.87207031 143.28808594 C-146.19369141 142.82547363 -146.5153125 142.36286133 -146.84667969 141.88623047 C-152.93997481 133.1396139 -159.03326486 124.47453835 -165.87207031 116.28808594 C-163.14918757 112.93528257 -159.4707279 111.60585465 -155.62207031 109.91308594 C-119.2614039 93.30203587 -84.91904647 69.01770808 -55.65332031 41.85058594 C-53.36419809 39.74150704 -51.04731867 37.68829882 -48.68457031 35.66308594 C-42.42902281 30.2088689 -36.68856388 24.40432807 -31.43457031 17.97558594 C-30.67917969 17.06550781 -29.92378906 16.15542969 -29.14550781 15.21777344 C-26.79283323 12.29194441 -26.79283323 12.29194441 -24.78613281 8.92089844 C-17.8702971 -1.39218991 -11.39825198 -1.07263798 0 0 Z M1.12792969 33.28808594 C0.48210937 34.07828125 -0.16371094 34.86847656 -0.82910156 35.68261719 C-12.8381823 50.14368826 -26.01118214 63.74984657 -40.87207031 75.28808594 C-42.96808611 77.02307204 -45.04368459 78.78204765 -47.12207031 80.53808594 C-50.38196534 83.26739909 -53.63813807 85.91323818 -57.12207031 88.35058594 C-58.02957031 88.98996094 -58.93707031 89.62933594 -59.87207031 90.28808594 C-59.87207031 90.61808594 -59.87207031 90.94808594 -59.87207031 91.28808594 C-18.29207031 91.28808594 23.28792969 91.28808594 66.12792969 91.28808594 C63.58932008 88.74947633 61.57952732 86.75743329 58.76464844 84.72949219 C58.13268555 84.26792725 57.50072266 83.8063623 56.84960938 83.33081055 C56.17833008 82.84233643 55.50705078 82.3538623 54.81542969 81.85058594 C46.54356511 75.73573415 38.785071 69.15004591 31.12792969 62.28808594 C30.5971582 61.81516113 30.06638672 61.34223633 29.51953125 60.85498047 C21.93406692 54.08001122 14.70931642 46.97798812 7.56591797 39.7421875 C5.42918398 37.58151048 3.27864398 35.43483943 1.12792969 33.28808594 Z " fill="#3F5A44" transform="translate(1830.8720703125,229.7119140625)"/>
<path d="M0 0 C41.25 0 82.5 0 125 0 C125.061875 19.42875 125.12375 38.8575 125.1875 58.875 C125.22846802 68.05739502 125.22846802 68.05739502 125.27026367 77.42529297 C125.28381348 84.93383789 125.28381348 84.93383789 125.28633118 88.45535278 C125.29092048 90.90076335 125.30143541 93.34616736 125.31672668 95.79153442 C125.33879368 99.50811453 125.34171439 103.22428184 125.34057617 106.94091797 C125.3513705 108.01977201 125.36216482 109.09862606 125.37328625 110.21017265 C125.33772624 118.92669287 124.07572432 127.53343071 118.484375 134.5390625 C109.85736499 143.02985656 95.06068098 143.31892047 83.65849304 143.28634644 C81.31374771 143.26353198 78.96953517 143.22597864 76.625 143.1875 C75.00261678 143.1724058 73.38021976 143.15872588 71.7578125 143.14648438 C67.83819184 143.11389967 63.91925487 143.06238814 60 143 C55.5 128 55.5 128 51 113 C64.2 112.67 77.4 112.34 91 112 C92.20232768 108.39301695 92.1759955 105.0724243 92.20532227 101.31567383 C92.21522186 100.5349501 92.22512146 99.75422638 92.23532104 98.94984436 C92.26691177 96.36893752 92.29168388 93.78801227 92.31640625 91.20703125 C92.33697787 89.41769431 92.3579744 87.6283622 92.37937927 85.83903503 C92.43457842 81.12907834 92.48399723 76.41907794 92.53222656 71.70904541 C92.59128854 66.05802885 92.65750467 60.40709218 92.72252655 54.75614166 C92.82050895 46.17080989 92.90938355 37.58542692 93 29 C72.87 29 52.74 29 32 29 C32 79.16 32 129.32 32 181 C21.44 181 10.88 181 0 181 C0 121.27 0 61.54 0 0 Z " fill="#3F5A44" transform="translate(1843,377)"/>
<path d="M0 0 C36.63 0 73.26 0 111 0 C111 41.58 111 83.16 111 126 C84.27 126 57.54 126 30 126 C30 134.91 30 143.82 30 153 C20.1 153 10.2 153 0 153 C0 102.51 0 52.02 0 0 Z M30 29 C30 51.11 30 73.22 30 96 C46.5 96 63 96 80 96 C80 73.89 80 51.78 80 29 C63.5 29 47 29 30 29 Z " fill="#3F5A44" transform="translate(1705,377)"/>
<path d="M0 0 C1.70801662 0.00576679 1.70801662 0.00576679 3.45053864 0.01165009 C4.73149666 0.01372215 6.01245468 0.01579422 7.33222961 0.01792908 C8.7449171 0.02540738 10.15760376 0.03304373 11.57028961 0.04082489 C13.0288126 0.04537953 14.48733677 0.04956807 15.94586182 0.05340576 C20.4437655 0.0671768 24.94158154 0.0912403 29.43943024 0.11699677 C30.75517029 0.12403625 32.07091034 0.13107574 33.4265213 0.13832855 C41.72747692 0.18506914 50.02824163 0.24899959 58.32903099 0.31892586 C61.80287554 0.34790126 65.27673215 0.37535889 68.75058746 0.40300751 C75.26960994 0.45510816 81.78862122 0.50848769 88.30762911 0.56237936 C95.75441227 0.62387458 103.20120736 0.6838639 110.64800358 0.74375439 C125.91182586 0.86654522 141.17563292 0.99113729 156.43943024 1.11699677 C156.45253014 2.52997605 156.46177916 3.9429913 156.46945953 5.35601044 C156.47503372 6.14287735 156.48060791 6.92974426 156.48635101 7.74045563 C156.27135335 18.630105 153.33261963 29.4509423 148.43943024 39.11699677 C147.94700836 40.10055145 147.45458649 41.08410614 146.94724274 42.09746552 C141.00039309 53.0948693 132.97586988 62.03275879 122.43552399 68.81230927 C120.32587296 70.09387538 120.32587296 70.09387538 118.43943024 72.11699677 C116.43430328 72.49590302 116.43430328 72.49590302 113.95114899 72.67949677 C112.56657501 72.78995331 112.56657501 72.78995331 111.15402985 72.9026413 C109.65561554 73.00874725 109.65561554 73.00874725 108.12693024 73.11699677 C106.01746217 73.27985829 103.90808846 73.44394607 101.79880524 73.60918427 C100.73081696 73.691362 99.66282867 73.77353973 98.56247711 73.8582077 C94.84380787 74.16635259 91.1391884 74.56464717 87.43015289 74.97026825 C53.97014948 78.53127263 53.97014948 78.53127263 42.43943024 71.11699677 C38.32664515 69.79254055 35.22007505 69.11613797 30.88864899 69.12090302 C26.64281153 68.98231485 23.41152948 68.65514741 19.43943024 67.11699677 C16.17420786 62.85569512 14.41561868 58.32839937 12.43894196 53.37334442 C10.75058066 49.56195333 8.46998506 46.1576637 6.18943024 42.67949677 C-2.03380752 29.74340921 -6.56589295 16.6900351 -3.56056976 1.11699677 C-2.56056976 0.11699677 -2.56056976 0.11699677 0 0 Z " fill="#7E4238" transform="translate(494.5605697631836,691.8830032348633)"/>
<path d="M0 0 C2.7106722 0.42087527 5.37526959 0.89821806 8.0625 1.4375 C8.82111328 1.58509766 9.57972656 1.73269531 10.36132812 1.88476562 C12.24188598 2.25141527 14.12107695 2.62506271 16 3 C16 3.99 16 4.98 16 6 C15.01 6 14.02 6 13 6 C12.82984375 6.61746094 12.6596875 7.23492188 12.484375 7.87109375 C12.24203125 8.71800781 11.9996875 9.56492187 11.75 10.4375 C11.51796875 11.26121094 11.2859375 12.08492187 11.046875 12.93359375 C9.63826863 17.05954899 7.77067422 21.01598301 6 25 C26.46 25 46.92 25 68 25 C68 70.54 68 116.08 68 163 C63.71 163 59.42 163 55 163 C55 159.7 55 156.4 55 153 C23.98 153 -7.04 153 -39 153 C-39 156.63 -39 160.26 -39 164 C-42.96 164 -46.92 164 -51 164 C-51 118.13 -51 72.26 -51 25 C-36.81 25 -22.62 25 -8 25 C-5.88464597 17.94881989 -3.83645933 10.89949891 -1.8671875 3.80859375 C-1 1 -1 1 0 0 Z M-39 37 C-39 45.91 -39 54.82 -39 64 C-7.98 64 23.04 64 55 64 C55 55.09 55 46.18 55 37 C23.98 37 -7.04 37 -39 37 Z M-39 76 C-39 84.91 -39 93.82 -39 103 C-7.98 103 23.04 103 55 103 C55 94.09 55 85.18 55 76 C23.98 76 -7.04 76 -39 76 Z M-39 115 C-39 123.58 -39 132.16 -39 141 C-7.98 141 23.04 141 55 141 C55 132.42 55 123.84 55 115 C23.98 115 -7.04 115 -39 115 Z " fill="#7E4238" transform="translate(1901,649)"/>
<path d="M0 0 C30.36 0 60.72 0 92 0 C92 25.74 92 51.48 92 78 C78.47 78 64.94 78 51 78 C51 84.6 51 91.2 51 98 C65.52 98 80.04 98 95 98 C95 101.63 95 105.26 95 109 C80.48 109 65.96 109 51 109 C51 117.58 51 126.16 51 135 C67.17 135 83.34 135 100 135 C100 138.96 100 142.92 100 147 C62.71 147 25.42 147 -13 147 C-13 143.04 -13 139.08 -13 135 C4.49 135 21.98 135 40 135 C40 126.42 40 117.84 40 109 C26.47 109 12.94 109 -1 109 C-1 105.37 -1 101.74 -1 98 C12.53 98 26.06 98 40 98 C40 91.4 40 84.8 40 78 C26.8 78 13.6 78 0 78 C0 52.26 0 26.52 0 0 Z M11 11 C11 18.26 11 25.52 11 33 C20.57 33 30.14 33 40 33 C40 25.74 40 18.48 40 11 C30.43 11 20.86 11 11 11 Z M51 11 C51 18.26 51 25.52 51 33 C60.57 33 70.14 33 80 33 C80 25.74 80 18.48 80 11 C70.43 11 60.86 11 51 11 Z M11 44 C11 51.59 11 59.18 11 67 C20.57 67 30.14 67 40 67 C40 59.41 40 51.82 40 44 C30.43 44 20.86 44 11 44 Z M51 44 C51 51.59 51 59.18 51 67 C60.57 67 70.14 67 80 67 C80 59.41 80 51.82 80 44 C70.43 44 60.86 44 51 44 Z " fill="#7E4238" transform="translate(2404,660)"/>
<path d="M0 0 C41.25 0 82.5 0 125 0 C125 26.73 125 53.46 125 81 C120.71 81 116.42 81 112 81 C112 77.37 112 73.74 112 70 C81.64 70 51.28 70 20 70 C20.12375 78.745 20.2475 87.49 20.375 96.5 C20.40899902 99.24634766 20.44299805 101.99269531 20.47802734 104.82226562 C20.51325713 107.01693909 20.549181 109.21160157 20.5859375 111.40625 C20.59729736 112.5312793 20.60865723 113.65630859 20.62036133 114.81542969 C20.73102804 120.85809872 21.1099024 126.23856684 23 132 C27.80205978 135.9445491 35.78260488 135.15281057 41.72412109 135.16113281 C42.58021469 135.16609772 43.43630829 135.17106262 44.31834412 135.17617798 C47.13671689 135.19072495 49.95503343 135.19758838 52.7734375 135.203125 C54.74109904 135.20888169 56.70876058 135.21463935 58.67642212 135.22039795 C62.79697937 135.23088606 66.91751723 135.23674334 71.03808594 135.24023438 C76.30595197 135.24572078 81.57355978 135.2697613 86.84134483 135.29820633 C90.90437562 135.31686948 94.96734456 135.32204022 99.03041458 135.32357025 C100.97199544 135.32658794 102.91357544 135.33458649 104.85511398 135.34775543 C107.57597051 135.36489634 110.29620056 135.36291637 113.01708984 135.35644531 C113.8111171 135.3656601 114.60514435 135.37487488 115.42323303 135.3843689 C120.90502355 135.34372793 125.00133493 134.29879309 130 132 C135.29402797 125.87007288 136.2558787 118.348972 137.125 110.5625 C137.25455078 109.46518555 137.25455078 109.46518555 137.38671875 108.34570312 C137.59628393 106.56439906 137.79887868 104.78227719 138 103 C142.46368466 104.45417489 146.70797017 106.11150687 151 108 C151.60759011 117.92397175 150.09730123 130.7920945 144 139 C139.33133181 144.19270237 133.66465473 147.44312987 126.65358353 148.28011703 C124.02999586 148.38771723 121.42115801 148.40554091 118.79541016 148.38818359 C117.8056871 148.39344055 116.81596405 148.39869751 115.79624939 148.40411377 C112.54369038 148.41725351 109.29162599 148.40859549 106.0390625 148.3984375 C103.76516629 148.40046028 101.49127071 148.40337342 99.21737671 148.40713501 C94.45800585 148.41155049 89.69880426 148.40515334 84.93945312 148.39111328 C78.85796912 148.37404159 72.77688294 148.38385502 66.69541359 148.40183067 C62.00091593 148.41270603 57.30651152 148.40920462 52.61201096 148.4014473 C50.37065966 148.39945465 48.12929973 148.40187148 45.88795853 148.40888596 C42.7462062 148.41656001 39.60508464 148.40481202 36.46337891 148.38818359 C35.54877396 148.39425629 34.63416901 148.40032898 33.69184875 148.40658569 C26.31498049 148.33476098 19.40879839 147.10330113 13.0625 143.1875 C8.53244361 138.38289474 7.56040939 133.6694031 7.65942383 127.25048828 C7.65906222 126.48652678 7.65870062 125.72256527 7.65832806 124.93545341 C7.66055442 122.48013314 7.68334019 120.0255094 7.70703125 117.5703125 C7.71144609 116.047448 7.71450417 114.52457895 7.71618652 113.00170898 C7.73186903 107.37606957 7.77375292 101.75052783 7.8125 96.125 C7.874375 83.54375 7.93625 70.9625 8 58 C42.32 58 76.64 58 112 58 C112 42.82 112 27.64 112 12 C75.04 12 38.08 12 0 12 C0 8.04 0 4.08 0 0 Z " fill="#7E4238" transform="translate(2004,660)"/>
<path d="M0 0 C32.34 0 64.68 0 98 0 C98 11.88 98 23.76 98 36 C69.62 36 41.24 36 12 36 C12 39.96 12 43.92 12 48 C44.01 48 76.02 48 109 48 C109 62.52 109 77.04 109 92 C105.04 92 101.08 92 97 92 C97 90.02 97 88.04 97 86 C68.95 86 40.9 86 12 86 C12 87.98 12 89.96 12 92 C8.04 92 4.08 92 0 92 C0 61.64 0 31.28 0 0 Z M12 10 C12 15.28 12 20.56 12 26 C36.42 26 60.84 26 86 26 C86 20.72 86 15.44 86 10 C61.58 10 37.16 10 12 10 Z M12 58 C12 63.94 12 69.88 12 76 C40.05 76 68.1 76 97 76 C97 70.06 97 64.12 97 58 C68.95 58 40.9 58 12 58 Z " fill="#7E4238" transform="translate(2198,720)"/>
<path d="M0 0 C5.05255964 0.63156995 9.29593201 2.13459373 14 4 C13.67 4.99 13.34 5.98 13 7 C12.01 7 11.02 7 10 7 C9.690625 7.94875 9.38125 8.8975 9.0625 9.875 C8 13 8 13 7 15 C22.51 15 38.02 15 54 15 C54.495 18.465 54.495 18.465 55 22 C60.43757522 15.02425213 64.69496422 8.21492067 68 0 C73.45479185 0.56820748 77.91059256 1.94637945 83 4 C83 4.66 83 5.32 83 6 C82.01 6.33 81.02 6.66 80 7 C78.68 9.64 77.36 12.28 76 15 C96.13 15 116.26 15 137 15 C137 18.3 137 21.6 137 25 C124.13 25.33 111.26 25.66 98 26 C100.31 29.63 102.62 33.26 105 37 C105.33 38.32 105.66 39.64 106 41 C104.75336669 41.50833591 103.50250613 42.00631145 102.25 42.5 C101.55390625 42.7784375 100.8578125 43.056875 100.140625 43.34375 C98 44 98 44 94 44 C92.21875 41.55078125 92.21875 41.55078125 90.5 38.3125 C88.74772657 35.05088195 87.09922431 32.12385569 84.78125 29.23046875 C83 27 83 27 83 25 C73.50645226 24.40035948 73.50645226 24.40035948 65.22265625 28.29296875 C63.27879764 30.78518531 61.56029115 33.25328939 60 36 C61.65 36.33 63.3 36.66 65 37 C65 37.99 65 38.98 65 40 C64.01 40 63.02 40 62 40 C62 43.3 62 46.6 62 50 C84.77 50 107.54 50 131 50 C131 61.22 131 72.44 131 84 C126.71 84 122.42 84 118 84 C118 76.41 118 68.82 118 61 C77.08 61 36.16 61 -6 61 C-6 68.59 -6 76.18 -6 84 C-9.96 84 -13.92 84 -18 84 C-18 72.78 -18 61.56 -18 50 C4.11 50 26.22 50 49 50 C48.505 45.545 48.505 45.545 48 41 C44.60814494 38.35706007 44.60814494 38.35706007 41 37 C44.33553835 32.46366784 47.49278054 29.86333097 52 26 C42.1 26 32.2 26 22 26 C23.98 30.29 25.96 34.58 28 39 C28 39.66 28 40.32 28 41 C26.56445975 41.50559908 25.1264798 42.0042749 23.6875 42.5 C22.88699219 42.7784375 22.08648438 43.056875 21.26171875 43.34375 C19 44 19 44 16 44 C14.66042079 41.21128823 13.32941565 38.41856938 12 35.625 C11.42765625 34.43390625 11.42765625 34.43390625 10.84375 33.21875 C10.4828125 32.45820312 10.121875 31.69765625 9.75 30.9140625 C9.41484375 30.2123291 9.0796875 29.5105957 8.734375 28.78759766 C8 27 8 27 8 25 C5.36 25 2.72 25 0 25 C-0.39058594 25.85271484 -0.39058594 25.85271484 -0.7890625 26.72265625 C-2.56501398 30.0625908 -4.91321394 32.85835922 -7.265625 35.80859375 C-8.60379608 37.49939099 -9.87863897 39.24043149 -11.125 41 C-13 43 -13 43 -15.3125 44.125 C-19.4276127 43.93359941 -21.9120717 41.57179043 -25 39 C-23.40828029 35.27432638 -21.04731554 32.6447993 -18.375 29.625 C-12.89918264 23.25626744 -8.94854328 16.38053655 -5 9 C-4.00271181 7.20682245 -3.00313745 5.41491192 -2 3.625 C-1.33240467 2.4171795 -0.66531332 1.20907902 0 0 Z " fill="#7E4238" transform="translate(2191,649)"/>
<path d="M0 0 C19.14 0 38.28 0 58 0 C58 3.96 58 7.92 58 12 C50.41 12 42.82 12 35 12 C35 24.87 35 37.74 35 51 C42.26 51 49.52 51 57 51 C57 54.63 57 58.26 57 62 C49.74 62 42.48 62 35 62 C35 75.86 35 89.72 35 104 C41.6 102.02 48.2 100.04 55 98 C56.32 98 57.64 98 59 98 C59.335939 99.4577353 59.66866624 100.91621106 60 102.375 C60.2784375 103.59316406 60.2784375 103.59316406 60.5625 104.8359375 C61 107 61 107 61 109 C60.01734161 109.30947319 60.01734161 109.30947319 59.01483154 109.62519836 C52.19877407 111.77350382 45.38625288 113.93274905 38.57568359 116.09838867 C36.03352372 116.90613227 33.49003966 117.70927996 30.94580078 118.51049805 C27.28961768 119.66241683 23.63674738 120.82434479 19.984375 121.98828125 C18.27637726 122.52283684 18.27637726 122.52283684 16.53387451 123.06819153 C14.94267792 123.57838081 14.94267792 123.57838081 13.31933594 124.09887695 C12.38667908 124.39421829 11.45402222 124.68955963 10.49310303 124.99385071 C7.94896868 126.02059487 6.15982293 127.3358244 4 129 C3.34 129 2.68 129 2 129 C1.29911844 127.25531628 0.61475991 125.50398839 -0.0625 123.75 C-0.44535156 122.77546875 -0.82820313 121.8009375 -1.22265625 120.796875 C-2.03645133 117.86884847 -1.84515582 116.81192031 -1 114 C2.62387457 112.99589032 6.24927651 111.99741092 9.875 111 C10.90753906 110.71382812 11.94007813 110.42765625 13.00390625 110.1328125 C14.48310547 109.72675781 14.48310547 109.72675781 15.9921875 109.3125 C16.90339355 109.06113281 17.81459961 108.80976562 18.75341797 108.55078125 C21 108 21 108 23 108 C23 92.82 23 77.64 23 62 C16.07 62 9.14 62 2 62 C2 58.37 2 54.74 2 51 C8.93 51 15.86 51 23 51 C23 38.13 23 25.26 23 12 C15.41 12 7.82 12 0 12 C0 8.04 0 4.08 0 0 Z " fill="#7E4238" transform="translate(2341,661)"/>
<path d="M0 0 C0.08636719 1.29292969 0.17273438 2.58585938 0.26171875 3.91796875 C1.78124101 23.75203482 8.38002353 37.7426678 21.18017578 52.87866211 C25.05514589 57.59743153 27.66205974 62.46218792 28.25 68.6171875 C27.52281831 75.18454712 25.28931595 80.2952823 22 86 C21.01 86 20.02 86 19 86 C18.72027344 84.98421875 18.44054687 83.9684375 18.15234375 82.921875 C14.58174774 70.43849858 10.05089605 60.65176151 0.5 51.625 C-7.28351513 44.24396578 -12.68872204 36.0548378 -14.0625 25.125 C-14.29604331 16.25035438 -11.65970141 9.86475745 -6 3 C-2.47450111 0 -2.47450111 0 0 0 Z " fill="#C3BB7F" transform="translate(553,582)"/>
<path d="M0 0 C0 0.99 0 1.98 0 3 C-2.00017451 4.79954911 -3.97430996 6.39827811 -6.125 8 C-7.41945932 8.98933677 -8.71372491 9.97892705 -10.0078125 10.96875 C-10.67329102 11.47277344 -11.33876953 11.97679688 -12.02441406 12.49609375 C-15.04446374 14.7950935 -18.02114058 17.14804624 -21 19.5 C-22.166429 20.41696907 -23.33309658 21.33363474 -24.5 22.25 C-25.36625 22.930625 -25.36625 22.930625 -26.25 23.625 C-37.33333333 32.33333333 -48.41666667 41.04166667 -59.5 49.75 C-60.3664917 50.4308667 -60.3664917 50.4308667 -61.25048828 51.12548828 C-62.41539177 52.04069993 -63.58043053 52.95573944 -64.74560547 53.87060547 C-67.69039045 56.18313021 -70.63265185 58.49874234 -73.5703125 60.8203125 C-80.96625373 66.65916022 -88.43154068 72.38603292 -96 78 C-96 70.51933857 -85.99421411 62.67086254 -81.140625 57.36328125 C-79.27147093 55.29970787 -77.47676638 53.19485387 -75.6875 51.0625 C-56.37013965 29.06095063 -27.79484704 9.26494901 0 0 Z " fill="#3F5A44" transform="translate(307,54)"/>
<path d="M0 0 C5.489233 2.38412608 9.25161848 6.84268022 13.4375 11 C14.28376953 11.81339844 15.13003906 12.62679687 16.00195312 13.46484375 C23.34250423 20.7421638 28.8316019 28.39091948 29 39 C28.42049232 45.84543443 25.88943665 51.12384986 21 56 C20.34 56 19.68 56 19 56 C18.92523437 54.91203125 18.85046875 53.8240625 18.7734375 52.703125 C17.74733947 40.43474424 15.25091903 30.76402856 6 22 C1.63829373 15.37443234 0 7.85822616 0 0 Z " fill="#C3BB7F" transform="translate(572,596)"/>
<path d="M0 0 C1 2 1 2 0.43359375 4.28515625 C-3.64300214 15.65166479 -9.08275994 24.50941854 -20.1796875 30.09765625 C-23.82692391 31.57719555 -27.06943894 32.3684901 -31 32 C-28.66148089 27.62291435 -25.59146992 24.31499967 -22.08984375 20.859375 C-21.52173477 20.29172424 -20.95362579 19.72407349 -20.36830139 19.13922119 C-19.17295188 17.94687995 -17.97518571 16.75695707 -16.77514648 15.56933594 C-14.9347657 13.74729295 -13.10259429 11.91729264 -11.27148438 10.0859375 C-10.10724305 8.92660892 -8.94254533 7.76773846 -7.77734375 6.609375 C-7.22835922 6.0615033 -6.67937469 5.51363159 -6.11375427 4.94915771 C-2.23221491 1.11610745 -2.23221491 1.11610745 0 0 Z " fill="#3F5A44" transform="translate(218,92)"/>
<path d="M0 0 C1.4540625 0.0309375 1.4540625 0.0309375 2.9375 0.0625 C3.5625 1.875 3.5625 1.875 3.9375 4.0625 C2.9475 5.5475 2.9475 5.5475 1.9375 7.0625 C-0.625 7.3125 -0.625 7.3125 -3.0625 7.0625 C-4.0625 6.0625 -4.0625 6.0625 -4.1875 3.5625 C-4.00295237 -0.12845252 -3.76342282 0.07680455 0 0 Z " fill="#3F5A44" transform="translate(204.0625,136.9375)"/>
<path d="M0 0 C1.65 0 3.3 0 5 0 C5 1.65 5 3.3 5 5 C3.0625 5.5625 3.0625 5.5625 1 6 C0 5 0 5 -0.0625 2.4375 C-0.041875 1.633125 -0.02125 0.82875 0 0 Z " fill="#3F5A44" transform="translate(180,130)"/>
</svg>
