<?xml version="1.0" encoding="UTF-8"?>
<svg version="1.1" xmlns="http://www.w3.org/2000/svg" width="1143" height="1190">
<path d="M0 0 C7.357043 4.52910613 14.79884865 8.91504832 22.23564148 13.31144714 C33.41741771 19.92861651 44.55784101 26.60520241 55.61064148 33.43644714 C52.71271309 28.61837549 49.55834946 25.41454353 45.17314148 21.93644714 C37.14234601 15.52290048 31.82973406 10.00191617 30.61064148 -0.56355286 C35.29566722 0.01983157 38.96019232 2.05266348 42.98564148 4.37394714 C44.03848328 4.97565735 44.03848328 4.97565735 45.1125946 5.58952332 C67.14856205 18.34913899 86.85368505 34.30433345 105.61064148 51.43644714 C106.5825946 52.30398621 107.55454773 53.17152527 108.55595398 54.06535339 C126.98218879 70.6251315 143.18503609 89.42114135 157.97831726 109.25090027 C159.04985833 110.68560497 160.12621259 112.1167299 161.20780945 113.54386902 C168.14468941 122.70763904 174.43440589 132.14924811 180.36064148 141.99894714 C180.95022644 142.97863464 181.5398114 143.95832214 182.14726257 144.96769714 C190.59626799 159.23608688 197.86634323 173.80241593 204.32484436 189.06834412 C206.35654309 193.86949226 208.41319239 198.6599684 210.46611023 203.45207214 C210.887397 204.43720795 211.30868378 205.42234375 211.74273682 206.43733215 C216.34396717 217.18245312 221.06325381 227.87469826 225.79814148 238.56144714 C226.18556519 239.43661987 226.57298889 240.3117926 226.97215271 241.21348572 C232.17240821 252.96005292 237.39166718 264.69818785 242.61064148 276.43644714 C241.95064148 270.16644714 241.29064148 263.89644714 240.61064148 257.43644714 C243.45902893 258.86064087 243.66481659 260.56737959 244.84135437 263.50358582 C245.49697105 265.12613533 245.49697105 265.12613533 246.16583252 266.78146362 C246.63359604 267.96053787 247.10135956 269.13961212 247.58329773 270.35441589 C248.30796486 272.16212212 248.30796486 272.16212212 249.04727173 274.00634766 C250.0712952 276.56276006 251.0903792 279.12107119 252.10600281 281.68083191 C253.40408845 284.95152548 254.71358656 288.21749939 256.02680302 291.48214245 C257.28081552 294.60384182 258.52542068 297.72926124 259.77079773 300.85441589 C260.24058548 302.02336899 260.71037323 303.19232208 261.19439697 304.396698 C261.6283226 305.49415848 262.06224823 306.59161896 262.50932312 307.72233582 C262.89189774 308.68306503 263.27447235 309.64379425 263.66864014 310.63363647 C265.09327706 314.87247073 265.74489425 319.05760944 265.70829773 323.52238464 C265.70346375 324.57619324 265.70346375 324.57619324 265.6985321 325.65129089 C265.6901532 326.36414246 265.68177429 327.07699402 265.67314148 327.81144714 C265.66862976 328.54750183 265.66411804 329.28355652 265.6594696 330.04191589 C265.6477929 331.84012872 265.62986159 333.63829912 265.61064148 335.43644714 C263.1034469 333.10995127 261.28880547 330.60963193 259.42314148 327.74894714 C258.89333679 326.94070496 258.3635321 326.13246277 257.81767273 325.29972839 C257.41935242 324.68484558 257.0210321 324.06996277 256.61064148 323.43644714 C256.28064148 323.76644714 255.95064148 324.09644714 255.61064148 324.43644714 C256.04696354 327.4891686 256.553943 330.49815175 257.11430359 333.52897644 C257.28662506 334.48555145 257.45894653 335.44212646 257.63648987 336.4276886 C258.21411302 339.62317663 258.80055279 342.81696746 259.38798523 346.01066589 C259.79638778 348.24662518 260.20463426 350.48261298 260.61273193 352.71862793 C261.4754801 357.43661881 262.34306884 362.15369198 263.21342468 366.87028503 C264.09528223 371.65269106 264.96901531 376.436455 265.83451843 381.22184753 C271.81540071 415.2374011 271.81540071 415.2374011 280.27810669 448.69345093 C282.85622098 457.43826704 283.28626228 464.00648591 281.12519836 472.82279968 C280.11789619 477.93930449 279.93703207 483.15484928 279.62532425 488.35226631 C279.493849 490.54179652 279.35361546 492.73061982 279.2111969 494.91946411 C279.00788209 498.05145297 278.8075455 501.18360992 278.60945129 504.31593323 C273.35045776 587.05476904 263.24021352 670.18455531 228.61064148 746.43644714 C228.16752625 747.41758484 227.72441101 748.39872253 227.26786804 749.40959167 C221.92313628 761.15121387 216.01924021 772.4199178 209.53276062 783.56828308 C204.69004705 792.01006736 200.6258992 800.73825975 196.74369812 809.65837097 C193.29928251 817.44534775 189.49262962 824.53085663 182.73564148 829.93644714 C182.1400946 830.42113464 181.54454773 830.90582214 180.93095398 831.40519714 C180.49525085 831.74550964 180.05954773 832.08582214 179.61064148 832.43644714 C179.28064148 831.77644714 178.95064148 831.11644714 178.61064148 830.43644714 C179.50346375 828.48796082 179.50346375 828.48796082 180.92704773 826.10441589 C181.44170593 825.22890076 181.95636414 824.35338562 182.48661804 823.45133972 C183.04317078 822.51830017 183.59972351 821.58526062 184.17314148 820.62394714 C192.47753451 808.21191591 192.47753451 808.21191591 196.61064148 794.43644714 C196.18396179 795.09386902 195.7572821 795.75129089 195.31767273 796.42863464 C189.04178316 805.97833877 182.35036478 815.21042349 175.61064148 824.43644714 C175.02411804 825.24130554 174.4375946 826.04616394 173.83329773 826.87541199 C166.70734198 836.64631356 159.47260439 846.30370619 151.93730164 855.76261902 C150.57230129 857.48482041 149.22069132 859.21679538 147.87236023 860.95207214 C142.47470908 867.89122756 136.93270738 874.67312863 131.22392273 881.35832214 C128.83181879 884.16352034 126.49608297 887.01107872 124.17314148 889.87394714 C119.76876532 895.28145524 115.24275362 900.57644236 110.68486023 905.85441589 C108.7238665 908.12823628 106.78921084 910.41965474 104.88017273 912.73722839 C92.53075653 927.63402819 78.89503345 941.58648007 63.3367157 953.12492371 C60.80461603 955.04888967 58.36392939 957.07823249 55.91337585 959.10441589 C46.42945349 966.94098373 36.59909833 974.25817406 26.61064148 981.43644714 C25.40383728 982.30487244 25.40383728 982.30487244 24.1726532 983.19084167 C-35.98641133 1026.30945104 -113.79214224 1073.46690297 -190.38935852 1072.43644714 C-186.66036786 1069.1033617 -182.40915295 1067.86918706 -177.75263977 1066.31925964 C-175.97670678 1065.71321693 -174.20083026 1065.10700873 -172.42500305 1064.50065613 C-171.49190308 1064.18490631 -170.5588031 1063.86915649 -169.59742737 1063.5438385 C-129.50422246 1049.94125467 -89.97732581 1035.40661151 -55.38935852 1010.43644714 C-56.34713196 1010.67879089 -57.3049054 1010.92113464 -58.29170227 1011.17082214 C-68.30137319 1013.69354347 -78.33532937 1016.09714333 -88.38935852 1018.43644714 C-85.65933043 1015.49641689 -83.11322119 1013.53800585 -79.55732727 1011.69425964 C-78.60624084 1011.19321716 -77.65515442 1010.69217468 -76.67524719 1010.1759491 C-75.65277893 1009.64316345 -74.63031067 1009.11037781 -73.57685852 1008.56144714 C-40.81416634 991.11515931 -8.75571408 970.45187297 19.61064148 946.43644714 C20.65315285 945.56740859 21.69614676 944.69894867 22.73954773 943.83097839 C34.06095621 934.36219419 44.84198431 924.39208472 55.2754364 913.95695496 C56.80301564 912.43158001 58.3384773 910.91444043 59.87431335 909.39738464 C65.47992127 903.82286849 70.70280075 898.11816377 75.61772156 891.90910339 C77.6958094 889.33077758 79.87630361 886.87995924 82.11064148 884.43644714 C85.96225596 880.20500217 89.59948791 875.83827134 93.19657898 871.38957214 C96.42923041 867.43506651 99.74171229 863.55040184 103.06913757 859.67546082 C105.60498247 856.73866838 105.60498247 856.73866838 107.61064148 853.43644714 C94.66503379 859.16492565 85.50405558 867.44917676 75.61064148 877.43644714 C74.38326891 878.66350199 73.15542887 879.89008946 71.92704773 881.11613464 C70.26211552 882.78083103 68.59924428 884.44727671 66.94364929 886.1212616 C63.54644485 889.54823759 60.0445988 892.77496875 56.36845398 895.89738464 C54.53137124 897.50585265 52.82156361 899.19483583 51.11064148 900.93644714 C48.20771298 903.87825415 45.1987328 906.62701758 42.06376648 909.31925964 C40.18201324 910.94332056 38.32216436 912.58389174 36.47001648 914.24113464 C16.64183071 931.86649499 -5.04748455 946.41431944 -27.81758118 959.90422058 C-30.33358597 961.40321869 -32.83777986 962.92004919 -35.33857727 964.44425964 C-50.70399908 973.79586547 -66.26881039 982.81959381 -82.63935852 990.31144714 C-83.35736633 990.64426697 -84.07537415 990.97708679 -84.81513977 991.31999207 C-99.82459674 997.98589839 -115.59210227 1001.87897768 -131.57685852 1005.37394714 C-133.51726442 1005.80622745 -135.45744742 1006.2395094 -137.39741516 1006.67375183 C-143.05903502 1007.93876712 -148.72375516 1009.1894114 -154.38935852 1010.43644714 C-160.03655277 1011.68039459 -165.68282061 1012.92824716 -171.32685852 1014.18644714 C-172.56556702 1014.46246765 -173.80427551 1014.73848816 -175.08052063 1015.02287292 C-182.50707135 1016.70521092 -189.83307142 1018.60529644 -197.13935852 1020.74894714 C-210.90232578 1024.77428416 -223.06938039 1025.68890513 -237.38935852 1025.43644714 C-237.38935852 1024.77644714 -237.38935852 1024.11644714 -237.38935852 1023.43644714 C-220.10644966 1017.74972808 -202.70141467 1012.88161914 -185.07685852 1008.37394714 C-163.96366036 1002.95575264 -143.46725401 997.20379055 -123.67842102 987.90519714 C-120.38935852 986.43644714 -120.38935852 986.43644714 -118.38935852 986.43644714 C-118.38935852 985.77644714 -118.38935852 985.11644714 -118.38935852 984.43644714 C-119.02744446 984.31527527 -119.6655304 984.19410339 -120.32295227 984.06925964 C-121.14924133 983.90168152 -121.9755304 983.73410339 -122.82685852 983.56144714 C-123.65056946 983.39902527 -124.4742804 983.23660339 -125.32295227 983.06925964 C-126.00486633 982.86043152 -126.6867804 982.65160339 -127.38935852 982.43644714 C-127.71935852 981.77644714 -128.04935852 981.11644714 -128.38935852 980.43644714 C-127.49442688 980.03965759 -126.59949524 979.64286804 -125.67744446 979.23405457 C-105.2113028 970.13960324 -84.95433394 961.09808608 -66.38935852 948.43644714 C-75.3737278 950.60756559 -84.25958617 953.06104834 -93.13935852 955.62394714 C-94.43357526 955.99588023 -95.72784584 956.36762599 -97.02217102 956.73918152 C-100.14509824 957.63644046 -103.26747659 958.53555938 -106.38935852 959.43644714 C-104.51026826 955.17373761 -101.6643801 953.23045103 -97.88935852 950.68644714 C-96.60794519 949.79662667 -95.3280035 948.90468332 -94.04951477 948.01066589 C-93.42190247 947.57286804 -92.79429016 947.13507019 -92.1476593 946.68400574 C-85.64620531 942.07106074 -79.61107242 936.81429351 -73.51435852 931.68644714 C-72.69246033 930.99627502 -72.69246033 930.99627502 -71.85395813 930.29216003 C-68.90010899 927.78966305 -66.08112983 925.21924454 -63.38935852 922.43644714 C-64.48248352 922.92113464 -65.57560852 923.40582214 -66.70185852 923.90519714 C-75.98721579 927.95435876 -85.3448959 931.59314463 -94.95185852 934.81144714 C-96.43009094 935.31128113 -96.43009094 935.31128113 -97.93818665 935.82121277 C-106.53059475 938.6466704 -114.79086595 940.72670596 -123.88935852 940.68644714 C-125.66826477 940.69418152 -125.66826477 940.69418152 -127.48310852 940.70207214 C-130.38935852 940.43644714 -130.38935852 940.43644714 -132.38935852 938.43644714 C-125.55650311 933.79402864 -118.45484833 929.75142199 -111.20185852 925.81144714 C-110.26454895 925.30210632 -109.32723938 924.7927655 -108.36152649 924.26799011 C-103.29545873 921.52538716 -98.21474519 918.81255818 -93.11982727 916.12394714 C-77.63214091 907.91555794 -64.23975094 899.42561397 -51.38935852 887.43644714 C-50.12236554 886.34862489 -48.85165156 885.26511817 -47.57685852 884.18644714 C-46.95166321 883.62570496 -46.3264679 883.06496277 -45.68232727 882.48722839 C-44.3972293 881.3378648 -43.10304026 880.19786306 -41.77851868 879.09416199 C-33.73750251 872.74096512 -33.73750251 872.74096512 -29.83857727 863.76457214 C-29.99507581 861.37347977 -30.19180215 858.9846158 -30.43232727 856.60050964 C-30.37980405 852.73289081 -29.604957 851.67833764 -26.88935852 848.99894714 C-25.41245292 847.78284432 -23.90742303 846.60076514 -22.38935852 845.43644714 C-16.9791895 840.83791405 -11.74958547 836.04892538 -6.57685852 831.18644714 C-5.53863953 830.21082825 -5.53863953 830.21082825 -4.47944641 829.21549988 C3.22262912 821.95099153 10.86536539 814.64771577 17.74345398 806.58488464 C19.63862528 804.40424821 21.59033222 802.28232234 23.55595398 800.16520691 C29.16533775 794.11806898 34.47312134 787.89329644 39.61064148 781.43644714 C40.02249695 780.92420593 40.43435242 780.41196472 40.85868835 779.88420105 C107.84702875 696.55171295 144.86009951 590.19519166 141.17311096 441.44346619 C134.26626496 379.08032164 114.67057668 320.34244609 86.61064148 264.43644714 C86.1491571 263.51621765 85.68767273 262.59598816 85.21220398 261.64787292 C76.40386952 244.21471098 66.22683792 227.69363042 55.42314148 211.43644714 C55.05140808 210.87562439 54.67967468 210.31480164 54.29667664 209.73698425 C40.75613086 189.35430069 25.60049723 168.26463584 5.91532898 153.36613464 C2.15681089 150.21917204 -0.25776956 147.91024355 -0.70185852 142.93644714 C-0.44145268 140.01990173 -0.07839128 137.27870727 0.61064148 134.43644714 C0.05376648 134.19281433 -0.50310852 133.94918152 -1.07685852 133.69816589 C-3.85771574 132.18090765 -5.99472459 130.32684897 -8.38935852 128.24894714 C-86.11354578 62.29220921 -184.718015 25.43151525 -305.56123352 26.89738464 C-389.6137998 34.05899191 -478.31325755 72.29861473 -598.60810852 173.31535339 C-599.19592102 174.01531433 -599.78373352 174.71527527 -600.38935852 175.43644714 C-601.18342102 176.35297058 -601.97748352 177.26949402 -602.79560852 178.21379089 C-621.71079061 200.11192533 -638.30211116 224.16194435 -652.38935852 249.43644714 C-652.8714679 250.28610046 -653.35357727 251.13575378 -653.85029602 252.01115417 C-677.2796751 293.38411556 -693.73622585 338.42362359 -705.38935852 384.43644714 C-706.37935852 384.43644714 -707.36935852 384.43644714 -708.38935852 384.43644714 C-709.77607727 382.90519714 -709.77607727 382.90519714 -711.07685852 380.93644714 C-711.51385071 380.28675964 -711.9508429 379.63707214 -712.40107727 378.96769714 C-712.72721008 378.46238464 -713.0533429 377.95707214 -713.38935852 377.43644714 C-716.57935499 404.1241855 -715.63913649 430.9391378 -714.93623352 457.74504089 C-714.91472481 458.56617874 -714.89321609 459.38731659 -714.8710556 460.2333374 C-714.65103349 468.58747438 -714.42289414 476.94130339 -714.1728096 485.29459763 C-713.48513345 508.3481585 -713.26220122 531.37292485 -713.38935852 554.43644714 C-716.25090829 550.14412249 -716.776154 545.7048243 -717.76435852 540.68644714 C-717.97987366 539.6056488 -718.19538879 538.52485046 -718.41743469 537.41130066 C-721.08457216 523.51803728 -722.7387216 509.48016127 -724.38935852 495.43644714 C-725.40103972 552.11394057 -709.90642663 606.79851045 -687.38935852 658.43644714 C-686.75078918 659.90186951 -686.75078918 659.90186951 -686.09931946 661.39689636 C-675.45393203 685.59870966 -663.584937 709.34105517 -650.34638977 732.22550964 C-647.9001753 736.47532255 -645.64713134 740.79637534 -643.43940735 745.17375183 C-639.46437411 753.04383145 -635.22507565 759.719027 -629.32295227 766.28410339 C-626.50030464 769.42608085 -626.23257072 771.17144258 -626.20185852 775.31144714 C-626.18767883 776.17511902 -626.17349915 777.03879089 -626.15888977 777.92863464 C-626.400766 780.56057594 -627.05952311 782.17625258 -628.38935852 784.43644714 C-631.83612852 782.95301714 -634.06279153 781.00594526 -636.69892883 778.35392761 C-637.95978302 777.09284683 -637.95978302 777.09284683 -639.24610901 775.80628967 C-640.1441626 774.89791351 -641.04221619 773.98953735 -641.96748352 773.05363464 C-643.35734467 771.65952866 -643.35734467 771.65952866 -644.77528381 770.23725891 C-647.23251641 767.77240864 -649.68368213 765.30161048 -652.13362122 762.82951355 C-654.63709661 760.30553949 -657.14627915 757.78725327 -659.65498352 755.26847839 C-664.57203377 750.33001118 -669.4826964 745.38523514 -674.38935852 740.43644714 C-673.45310751 742.33606273 -672.51368182 744.2341138 -671.57295227 746.1315155 C-671.05015686 747.18866257 -670.52736145 748.24580963 -669.98872375 749.33499146 C-667.71772741 753.73886018 -665.12066505 757.8695328 -662.38935852 761.99894714 C-661.83538391 762.84247742 -661.2814093 763.68600769 -660.71064758 764.55509949 C-652.10577575 777.52507577 -643.08660158 790.10867553 -632.38935852 801.43644714 C-631.32212906 802.68241164 -630.25956295 803.9323867 -629.20185852 805.18644714 C-619.68538757 816.07187679 -609.18560567 826.05739928 -597.47529602 834.54972839 C-591.32690094 839.08052826 -585.77589004 843.95289538 -580.42842102 849.41691589 C-579.62729385 850.23320969 -579.62729385 850.23320969 -578.8099823 851.06599426 C-576.11424176 853.82136908 -573.44257918 856.59582784 -570.79902649 859.40129089 C-561.41049839 869.20726147 -551.01376767 875.68249511 -538.13935852 880.18644714 C-536.94548523 880.62090149 -536.94548523 880.62090149 -535.72749329 881.06413269 C-530.31739467 882.96249717 -524.95382891 884.20092468 -519.32685852 885.24894714 C-511.72878964 886.70014268 -505.82992341 889.60262444 -499.20063782 893.51506042 C-472.68854453 909.13196903 -442.26286088 914.9802381 -412.28779602 919.96769714 C-411.519832 920.09623581 -410.75186798 920.22477448 -409.96063232 920.35720825 C-406.24438462 920.97791465 -402.52706539 921.58655765 -398.80464172 922.16911316 C-391.49515449 923.34299572 -384.39199537 924.84502945 -377.27998352 926.91691589 C-376.59171982 927.11664505 -375.90345612 927.31637421 -375.19433594 927.52215576 C-363.79365286 930.98697095 -354.80884342 937.04594499 -346.38935852 945.43644714 C-345.69197571 946.13125183 -344.9945929 946.82605652 -344.27607727 947.54191589 C-343.03104627 948.79178197 -341.79371802 950.04943844 -340.56904602 951.31925964 C-338.66030526 953.17326949 -336.70867316 954.91414357 -334.69795227 956.65519714 C-330.19217277 960.57612188 -325.85433439 964.64345653 -321.57685852 968.81144714 C-320.82726868 969.51527527 -320.07767883 970.21910339 -319.30537415 970.94425964 C-313.67751863 976.45643985 -311.1752254 981.28978956 -309.99092102 989.04582214 C-310.17801665 1006.13388983 -317.32266152 1021.65441211 -328.38935852 1034.43644714 C-329.11123352 1035.42644714 -329.83310852 1036.41644714 -330.57685852 1037.43644714 C-337.54721382 1045.58744895 -347.78048711 1052.47733497 -358.38935852 1054.43644714 C-361.82312781 1054.69049899 -365.23698457 1054.65906876 -368.67842102 1054.61222839 C-370.22268265 1054.6012764 -370.22268265 1054.6012764 -371.79814148 1054.59010315 C-385.36279027 1054.46057776 -398.92455672 1054.08852172 -412.4835968 1053.69181824 C-416.28378247 1053.58097179 -420.08417263 1053.48078357 -423.88471413 1053.38301277 C-426.87238469 1053.30438966 -429.85981375 1053.21844029 -432.84722519 1053.13056564 C-434.24787103 1053.09050959 -435.64859196 1053.05297793 -437.04938126 1053.0182991 C-459.28683258 1052.45921311 -476.66710856 1047.1916457 -496.32685852 1037.43644714 C-497.87702948 1036.67399475 -499.42724165 1035.91162613 -500.97749329 1035.14933777 C-546.35804779 1012.74831523 -588.57130106 985.37421396 -628.30683899 954.07365417 C-630.25727918 952.54028349 -632.21428416 951.0158648 -634.17451477 949.49504089 C-641.02450988 944.16986386 -647.7092367 938.68742762 -654.30732727 933.05363464 C-657.13618865 930.6414819 -660.00510974 928.28224717 -662.88935852 925.93644714 C-668.54954964 921.32474295 -674.12661205 916.62035263 -679.68476868 911.88664246 C-681.41055181 910.41841676 -683.14010124 908.95471182 -684.86982727 907.49113464 C-703.16653263 891.96819964 -721.91513182 875.65364079 -736.38935852 856.43644714 C-737.27778643 855.29902874 -738.16717934 854.1623637 -739.05732727 853.02629089 C-747.88295601 841.63733071 -755.64501625 829.57542167 -763.38935852 817.43644714 C-763.90997864 816.62304871 -764.43059875 815.80965027 -764.96699524 814.97160339 C-767.91738278 810.35681985 -770.83925467 805.72501615 -773.73945618 801.07853699 C-774.92412139 799.18145991 -776.11163253 797.2861589 -777.30097961 795.39201355 C-779.37958359 792.07810215 -781.44791 788.75794961 -783.51435852 785.43644714 C-784.4636322 783.92570618 -784.4636322 783.92570618 -785.43208313 782.38444519 C-795.05744729 766.83787023 -802.8271016 750.74829183 -809.51435852 733.74894714 C-810.24232957 731.91884819 -810.97119131 730.08910333 -811.70088196 728.25968933 C-813.1988094 724.50150513 -814.69139129 720.74125345 -816.18135071 716.97990417 C-818.28193386 711.68967907 -820.42789532 706.41880508 -822.58467102 701.15129089 C-843.86441199 649.05683044 -861.58655707 596.43640023 -860.38935852 539.43644714 C-857.41935852 539.10644714 -854.44935852 538.77644714 -851.38935852 538.43644714 C-851.53065186 537.6193779 -851.67194519 536.80230865 -851.81752014 535.96047974 C-853.32529214 526.50682225 -853.68440174 517.30266538 -853.65498352 507.75285339 C-853.65633806 506.16560813 -853.65828505 504.57836327 -853.66078186 502.99111938 C-853.66371074 499.67394538 -853.65951812 496.35687987 -853.65010071 493.03971863 C-853.63886443 488.88971948 -853.64538377 484.73998119 -853.65696335 480.58999157 C-853.7232328 452.72671143 -852.85402577 425.09314698 -848.63935852 397.49894714 C-848.37410255 395.7089378 -848.10905197 393.91889801 -847.8441925 392.12882996 C-845.45064301 376.14725097 -842.68148938 360.2585773 -839.38935852 344.43644714 C-839.13605774 343.21699402 -838.88275696 341.99754089 -838.6217804 340.74113464 C-830.08630731 300.43829933 -816.51088718 261.87054329 -799.38935852 224.43644714 C-799.00570129 223.58937195 -798.62204407 222.74229675 -798.22676086 221.86955261 C-790.03129201 203.82650671 -780.32868558 186.56716966 -770.38935852 169.43644714 C-769.39935852 169.76644714 -768.40935852 170.09644714 -767.38935852 170.43644714 C-765.42915373 174.71325759 -765.06523905 177.32232705 -766.51435852 181.81144714 C-767.33293592 183.99713319 -768.15910888 186.06235501 -769.38471985 188.05363464 C-773.56813156 195.57873659 -772.8623731 203.65151273 -772.83052063 212.00773621 C-772.81096554 226.31163619 -773.16983797 239.77902828 -777.49287415 253.5131073 C-778.63330233 257.23192187 -779.65937308 260.97792278 -780.68623352 264.72941589 C-782.26858511 270.48569139 -783.86340985 276.23793813 -785.49873352 281.97941589 C-785.83872375 283.17590759 -786.17871399 284.37239929 -786.52900696 285.60514832 C-787.38935852 288.43644714 -787.38935852 288.43644714 -788.38935852 290.43644714 C-777.40119551 285.00711371 -772.70786521 267.63058573 -768.32685852 256.81144714 C-757.60146711 230.35568292 -757.60146711 230.35568292 -752.18208313 227.11759949 C-751.29468445 226.78042908 -751.29468445 226.78042908 -750.38935852 226.43644714 C-750.44736633 227.22148621 -750.50537415 228.00652527 -750.56513977 228.81535339 C-750.96419424 236.13479731 -750.96419424 236.13479731 -748.01435852 242.62394714 C-745.70857701 245.42214361 -745.70857701 245.42214361 -743.38935852 246.43644714 C-743.1805304 245.67590027 -742.97170227 244.91535339 -742.75654602 244.13175964 C-740.82807699 238.91938336 -738.18082184 234.17965172 -735.51435852 229.31144714 C-734.9328302 228.24611755 -734.35130188 227.18078796 -733.75215149 226.08317566 C-714.01794916 190.17677579 -690.87193068 155.73403242 -664.38935852 124.43644714 C-663.94704895 123.91067078 -663.50473938 123.38489441 -663.04902649 122.84318542 C-652.9855077 110.89552016 -642.53350753 99.38808686 -631.38935852 88.43644714 C-628.42946219 85.49199375 -625.49348415 82.52539808 -622.56904602 79.54582214 C-615.56381435 72.43580442 -608.63690577 65.48583118 -600.77217102 59.32316589 C-598.50561245 57.52849739 -596.38901808 55.64549635 -594.26435852 53.68644714 C-587.34502575 47.47994084 -579.83412394 41.98949688 -572.38935852 36.43644714 C-571.65475403 35.88762878 -570.92014954 35.33881042 -570.1632843 34.77336121 C-552.40900707 21.5705565 -533.71481889 10.1813723 -514.38935852 -0.56355286 C-513.3118634 -1.1682843 -513.3118634 -1.1682843 -512.21260071 -1.78523254 C-487.71142131 -15.47741141 -461.79750819 -24.43610535 -435.21437073 -33.08003235 C-428.21300062 -35.35900562 -421.21842411 -37.65869531 -414.22461891 -39.96075821 C-411.8179916 -40.75048182 -409.40921733 -41.53332874 -407 -42.31510925 C-398.62099939 -45.05023343 -390.45930007 -47.9979765 -382.38935852 -51.56355286 C-382.38935852 -54.53355286 -382.38935852 -57.50355286 -382.38935852 -60.56355286 C-302.65644515 -87.95739449 -205.17061602 -75.4157829 0 0 Z M-246.38935852 -45.56355286 C-241.65570292 -42.40778246 -236.28991678 -41.87447208 -230.76435852 -40.75105286 C-229.47980774 -40.48606995 -228.19525696 -40.22108704 -226.8717804 -39.94807434 C-217.93999409 -38.13796796 -208.98457583 -36.70295288 -199.96348572 -35.42182922 C-162.71092278 -30.10950906 -126.68501341 -19.0222076 -92.38935852 -3.56355286 C-90.67087708 -2.79470764 -90.67087708 -2.79470764 -88.91767883 -2.0103302 C-61.88432501 10.12331922 -36.06978455 24.14740787 -10.68867493 39.45011902 C-7.40078688 41.42956679 -4.10530694 43.39574184 -0.80732727 45.35832214 C40.9299096 70.22486884 40.9299096 70.22486884 59.25517273 85.51847839 C61.9390429 87.70385195 64.67404679 89.61099639 67.61064148 91.43644714 C60.77769087 76.26379272 44.47530516 63.58538477 31.44950867 53.8177948 C29.56885055 52.40505401 27.70238401 50.97501343 25.83720398 49.54191589 C21.7994085 46.45457882 17.71713876 43.43166452 13.61064148 40.43644714 C12.88779968 39.90760925 12.16495789 39.37877136 11.42021179 38.83390808 C-4.75809522 27.10057857 -21.7842388 17.26541267 -40.84590149 11.07633972 C-47.30476341 8.93930055 -53.34469235 6.2390065 -59.45185852 3.24894714 C-79.98908663 -6.80125981 -100.787933 -16.03573205 -122.38935852 -23.56355286 C-123.47265442 -23.94108704 -124.55595032 -24.31862122 -125.67207336 -24.70759583 C-164.6172238 -38.10499721 -205.11673443 -46.36930908 -246.38935852 -45.56355286 Z M-791.38935852 294.43644714 C-794.22876372 298.11097152 -795.38935852 299.70531296 -795.38935852 304.43644714 C-794.10022365 305.10799647 -792.80795648 305.77353573 -791.51435852 306.43644714 C-790.79506165 306.80769714 -790.07576477 307.17894714 -789.33467102 307.56144714 C-787.44086875 308.5731846 -787.44086875 308.5731846 -785.38935852 308.43644714 C-785.86747029 306.6653287 -786.34688632 304.89456231 -786.82685852 303.12394714 C-787.09369446 302.13781433 -787.3605304 301.15168152 -787.63545227 300.13566589 C-788.17015277 298.22127188 -788.7608039 296.32211099 -789.38935852 294.43644714 C-790.04935852 294.43644714 -790.70935852 294.43644714 -791.38935852 294.43644714 Z M250.61064148 307.43644714 C251.27064148 309.74644714 251.93064148 312.05644714 252.61064148 314.43644714 C252.94064148 314.43644714 253.27064148 314.43644714 253.61064148 314.43644714 C253.86095125 312.02024892 253.86095125 312.02024892 253.61064148 309.43644714 C252.62064148 308.77644714 251.63064148 308.11644714 250.61064148 307.43644714 Z M-800.38935852 317.43644714 C-801.04935852 318.75644714 -801.70935852 320.07644714 -802.38935852 321.43644714 C-801.72935852 322.09644714 -801.06935852 322.75644714 -800.38935852 323.43644714 C-798.28115055 323.11792944 -798.28115055 323.11792944 -796.38935852 322.43644714 C-796.38935852 321.11644714 -796.38935852 319.79644714 -796.38935852 318.43644714 C-797.70935852 318.10644714 -799.02935852 317.77644714 -800.38935852 317.43644714 Z M210.61064148 765.43644714 C211.61064148 767.43644714 211.61064148 767.43644714 211.61064148 767.43644714 Z M209.61064148 768.43644714 C208.2699383 771.03705219 206.93790794 773.6414963 205.61064148 776.24894714 C205.22907898 776.98693542 204.84751648 777.72492371 204.45439148 778.48527527 C204.09345398 779.1974823 203.73251648 779.90968933 203.36064148 780.64347839 C203.02548523 781.29808044 202.69032898 781.9526825 202.34501648 782.62712097 C201.42259885 784.57429264 201.42259885 784.57429264 201.61064148 787.43644714 C202.93064148 787.43644714 204.25064148 787.43644714 205.61064148 787.43644714 C206.47565036 784.83543429 207.32791076 782.23138303 208.17314148 779.62394714 C208.41999695 778.88595886 208.66685242 778.14797058 208.92118835 777.38761902 C210.4268148 772.94838348 210.4268148 772.94838348 209.61064148 768.43644714 Z M112.61064148 843.43644714 C112.61064148 844.09644714 112.61064148 844.75644714 112.61064148 845.43644714 C113.60064148 845.10644714 114.59064148 844.77644714 115.61064148 844.43644714 C114.62064148 844.10644714 113.63064148 843.77644714 112.61064148 843.43644714 Z M-22.38935852 917.43644714 C-22.05935852 918.42644714 -21.72935852 919.41644714 -21.38935852 920.43644714 C-21.05935852 919.44644714 -20.72935852 918.45644714 -20.38935852 917.43644714 C-21.04935852 917.43644714 -21.70935852 917.43644714 -22.38935852 917.43644714 Z M-43.01435852 931.93644714 C-43.62537415 932.36570496 -44.23638977 932.79496277 -44.86592102 933.23722839 C-46.37666847 934.2994727 -47.88339794 935.36742724 -49.38935852 936.43644714 C-48.39935852 936.93144714 -48.39935852 936.93144714 -47.38935852 937.43644714 C-44.73610046 936.09336801 -44.73610046 936.09336801 -41.88935852 934.18644714 C-40.41982727 933.25058777 -40.41982727 933.25058777 -38.92060852 932.29582214 C-36.19541997 930.516241 -36.19541997 930.516241 -34.38935852 927.43644714 C-37.80935166 927.43644714 -40.30910665 930.01155639 -43.01435852 931.93644714 Z " fill="#3F5A44" transform="translate(860.3893585205078,117.56355285644531)"/>
<path d="M0 0 C0.66 0 1.32 0 2 0 C3.20195761 1.45280094 4.40117159 2.9080248 5.58154297 4.37841797 C14.12394288 14.14410131 29.48602017 20.93080169 42.17749023 22.22143555 C60.64814761 23.16870053 79.34440863 18.90998691 94 7 C94.99 7.495 94.99 7.495 96 8 C86.98015625 47.44356332 69.17496652 82.8251845 41.46484375 112.34765625 C39.50451132 114.45711064 37.63945317 116.58945942 35.8125 118.8125 C33.20726281 121.89141668 30.30747606 124.46901465 27.234375 127.07421875 C24.77732151 129.19192394 22.42842067 131.40605319 20.0625 133.625 C12.77129794 140.26250808 4.92931991 146.15050171 -3 152 C-3.68868164 152.50821289 -4.37736328 153.01642578 -5.08691406 153.54003906 C-15.87130299 161.44172737 -27.07995131 168.56618144 -38.51123047 175.49121094 C-40.8783633 176.92625909 -43.23869179 178.37188876 -45.59765625 179.8203125 C-46.96056243 180.65165687 -48.32381954 181.48242632 -49.6875 182.3125 C-50.30512207 182.69172607 -50.92274414 183.07095215 -51.55908203 183.46166992 C-55.76890699 186 -55.76890699 186 -58 186 C-58.11537109 186.69101807 -58.23074219 187.38203613 -58.34960938 188.09399414 C-59.08551915 191.38210752 -60.18530229 194.3550136 -61.40625 197.49609375 C-61.64716873 198.1181218 -61.88808746 198.74014984 -62.13630676 199.38102722 C-62.65285784 200.71215271 -63.17141449 202.04250137 -63.69180298 203.37213135 C-64.50617645 205.45328409 -65.31438209 207.53675568 -66.12182617 209.62060547 C-68.61500816 216.03463303 -71.15176692 222.42298444 -73.83203125 228.76171875 C-74.46431641 230.26230835 -74.46431641 230.26230835 -75.109375 231.79321289 C-75.89290639 233.63740539 -76.68793236 235.47676992 -77.49609375 237.31030273 C-77.84414063 238.12829346 -78.1921875 238.94628418 -78.55078125 239.7890625 C-78.85669189 240.48725098 -79.16260254 241.18543945 -79.4777832 241.90478516 C-80.56976331 246.28597882 -78.82218525 249.7131095 -76.62890625 253.44921875 C-75.89909546 254.70702148 -75.89909546 254.70702148 -75.15454102 255.99023438 C-74.62916748 256.88033203 -74.10379395 257.77042969 -73.5625 258.6875 C-72.45725472 260.58661226 -71.35310461 262.48636228 -70.25 264.38671875 C-69.69828125 265.33466309 -69.1465625 266.28260742 -68.578125 267.25927734 C-66.75342296 270.42822924 -64.99166939 273.62762986 -63.24194336 276.83837891 C-54.637888 292.60743421 -45.5305376 308.17492398 -34 322 C-33.22914063 322.93457031 -32.45828125 323.86914062 -31.6640625 324.83203125 C-26.24187313 331.15175026 -21.05296741 336.67010014 -12.5 337.8125 C-11.345 337.874375 -10.19 337.93625 -9 338 C-11.17527448 329.29890209 -15.885978 322.4297273 -20.70727539 314.99462891 C-29.5264612 301.38693334 -32.64236052 289.32166562 -31 273 C-30 272 -30 272 -27.39379025 271.87695217 C-25.63639192 271.87833486 -25.63639192 271.87833486 -23.8434906 271.87974548 C-23.19335135 271.87889106 -22.5432121 271.87803663 -21.87337166 271.87715632 C-19.6791442 271.87549974 -17.48499198 271.88102575 -15.29077148 271.88647461 C-13.72414146 271.88675647 -12.1575113 271.88659877 -10.59088135 271.8860321 C-6.32453623 271.88574408 -2.05821898 271.89164157 2.20811963 271.89860606 C6.66177051 271.90483882 11.11542197 271.90544334 15.56907654 271.90663147 C24.00867443 271.90974502 32.44825944 271.91795872 40.88785166 271.92798096 C50.49349444 271.93914137 60.09913782 271.94465236 69.70478547 271.94967639 C89.46986418 271.96014132 109.23493128 271.97774121 129 272 C129.01306702 273.58290415 129.02233432 275.16583992 129.0300293 276.7487793 C129.03560349 277.63027145 129.04117767 278.51176361 129.04692078 279.41996765 C128.64312835 301.6232986 117.36325869 319.83121294 102 335 C104.98715138 336.49357569 108.03887936 336.22503435 111.3125 336.25 C112.62863281 336.27578125 113.94476562 336.3015625 115.30078125 336.328125 C120.13045606 335.89972723 122.52329586 334.5296661 125.8515625 331.08203125 C137.02507988 316.78288236 146.57253936 301.4822579 156 286 C156.598125 285.01918457 157.19625 284.03836914 157.8125 283.02783203 C158.4209375 282.02993652 159.029375 281.03204102 159.65625 280.00390625 C160.26291504 279.0089917 160.86958008 278.01407715 161.49462891 276.98901367 C162.69602989 275.0136239 163.89369285 273.03595535 165.08740234 271.0559082 C167.55030708 266.97569369 170.01618815 262.91907983 172.6953125 258.9765625 C177.07842694 252.81058839 177.07842694 252.81058839 178.3125 245.5625 C177.81777377 243.35386589 177.81777377 243.35386589 177 241 C176.70480469 239.96488281 176.40960937 238.92976562 176.10546875 237.86328125 C166.16554084 206.49806702 140.8316811 190.17619993 113.5078125 174.92578125 C82.81660452 157.7683724 82.81660452 157.7683724 77.8828125 145.140625 C74.10478805 131.70021942 79.78999755 120.04437433 85.06274414 107.95776367 C97.74629445 78.83267603 106.41846396 48.78255769 114 18 C118.77653554 18.577346 123.11731994 19.53177436 127.68359375 21.0390625 C128.93366211 21.45115967 130.18373047 21.86325684 131.47167969 22.2878418 C132.79395164 22.73257576 134.11588643 23.17831332 135.4375 23.625 C136.10785278 23.85031403 136.77820557 24.07562805 137.46887207 24.30776978 C171.28413596 35.7058266 171.28413596 35.7058266 183.203125 49.9609375 C185.05084058 52.1971289 185.05084058 52.1971289 188 54.25 C225.28882574 84.55963376 240.5571996 177.44844512 251.75 222.3125 C251.99768127 223.30364807 251.99768127 223.30364807 252.25036621 224.31481934 C258.11776108 247.95331998 257.82203429 269.78635002 245.18896484 291.16748047 C241.79794462 296.39396873 237.47158495 300.70279018 233 305 C231.64455078 306.34964844 231.64455078 306.34964844 230.26171875 307.7265625 C205.28197468 331.70435279 172.65285993 348.12485751 142.34179688 364.22265625 C140.13232649 365.39776908 137.92524459 366.57738498 135.72070312 367.76171875 C97.34912934 388.37167691 55.43841016 401.32263544 12 389 C11.20480957 388.7745752 10.40961914 388.54915039 9.59033203 388.31689453 C-4.67034718 384.09628363 -17.93223761 377.58801062 -31.17926025 370.91589355 C-33.0843508 369.9575687 -34.99196621 369.00440358 -36.89990234 368.05175781 C-72.17610909 350.40607308 -107.03402535 331.1359943 -136 304 C-136.61101562 303.46503906 -137.22203125 302.93007813 -137.8515625 302.37890625 C-147.19865281 293.82141032 -153.28221126 281.95003523 -157 270 C-157.24492187 269.23042969 -157.48984375 268.46085937 -157.7421875 267.66796875 C-159.19810997 261.97391582 -159.2304673 256.15774261 -159.3125 250.3125 C-159.33030518 249.52351318 -159.34811035 248.73452637 -159.36645508 247.92163086 C-159.34463663 231.19359437 -153.1732007 214.92528001 -148.3125 199.125 C-147.93828918 197.90157898 -147.56407837 196.67815796 -147.17852783 195.41766357 C-137.35427681 163.30430166 -127.11823481 131.32222118 -115.95465088 99.64691162 C-115.33268901 97.88171058 -114.71352838 96.11551924 -114.09759521 94.34820557 C-105.09247963 68.59105107 -94.16814182 48.84271828 -68.703125 36.09765625 C-60.39446672 32.21668717 -51.58173728 29.46362499 -42.93359375 26.44921875 C-25.05086532 20.51452506 -25.05086532 20.51452506 -9.49609375 10.25 C-8 9 -8 9 -6 9 C-5.62875 8.1646875 -5.62875 8.1646875 -5.25 7.3125 C-3.77075182 4.57589087 -2.06532561 2.32349131 0 0 Z M25 365 C25 365.66 25 366.32 25 367 C40.70357416 370.87400948 58.02419906 370.36679153 73 364 C65.61769456 357.51251946 59.7566574 356.39138382 50.06640625 356.57421875 C41.19509481 357.24872107 32.80947796 360.94667887 25 365 Z " fill="#BA7E5F" transform="translate(522,464)"/>
<path d="M0 0 C0.83015625 0.63550781 1.6603125 1.27101563 2.515625 1.92578125 C3.36640625 2.57160156 4.2171875 3.21742188 5.09375 3.8828125 C17.63559718 14.25099598 25.87161002 29.9554075 28.515625 45.92578125 C29.98000622 62.38918726 27.76386794 78.19309487 17.24511719 91.53759766 C10.24962079 99.72909828 2.16836538 105.2471311 -7.484375 109.92578125 C-8.09764648 110.22822754 -8.71091797 110.53067383 -9.34277344 110.84228516 C-38.23244171 124.8827538 -71.06483051 129.25308932 -102.62599182 133.27639771 C-105.81680865 133.69011214 -108.99047312 134.16289064 -112.16598511 134.68037415 C-131.2771901 137.62458205 -150.41766874 137.40254133 -169.70088983 137.3946209 C-173.61794996 137.39449968 -177.53497423 137.40312223 -181.45202416 137.41139841 C-190.69061633 137.43048294 -199.92911816 137.43356725 -209.16772461 137.42675781 C-218.6646075 137.42008736 -228.16110497 137.4431359 -237.65790969 137.48007154 C-245.86149255 137.51080666 -254.06495139 137.52212566 -262.26859063 137.51823473 C-267.14745975 137.51617583 -272.02602659 137.52151733 -276.90484047 137.54612732 C-281.48122719 137.5684631 -286.05698309 137.56646034 -290.63337326 137.5461998 C-292.30422525 137.54280486 -293.97512044 137.54781299 -295.64591408 137.56218338 C-305.23094703 137.63889976 -313.01348149 136.97667402 -321.484375 131.92578125 C-319.40707569 129.84848194 -318.44004456 129.42518042 -315.72265625 128.55078125 C-314.945271 128.29312988 -314.16788574 128.03547852 -313.36694336 127.77001953 C-312.09475952 127.35212158 -312.09475952 127.35212158 -310.796875 126.92578125 C-299.05088422 122.93665755 -287.77801948 118.03908519 -276.484375 112.92578125 C-275.6608252 112.55727051 -274.83727539 112.18875977 -273.98876953 111.80908203 C-260.3505886 105.68381475 -247.36700309 98.49936112 -234.484375 90.92578125 C-233.78282288 90.51487244 -233.08127075 90.10396362 -232.35845947 89.68060303 C-219.18194847 81.94379932 -206.4079096 73.70698704 -193.734375 65.17578125 C-191.8846768 63.93588603 -190.03465707 62.69647035 -188.18432617 61.45751953 C-184.57303223 59.03870314 -180.96326025 56.61764629 -177.35498047 54.19433594 C-170.23138129 49.41140469 -163.08978473 44.65561583 -155.94506836 39.90429688 C-152.10028564 37.34554581 -148.26113781 34.78119842 -144.453125 32.16796875 C-134.91533972 25.64691907 -124.99987324 19.89183529 -114.90429688 14.27734375 C-112.82179652 13.11423621 -110.7529059 11.93132787 -108.6875 10.73828125 C-77.73915746 -6.62639963 -32.23024757 -22.53222398 0 0 Z " fill="#7E4238" transform="translate(802.484375,819.07421875)"/>
<path d="M0 0 C1.37164307 0.57886963 1.37164307 0.57886963 2.77099609 1.16943359 C21.40478074 9.08458526 38.97299057 18.95067225 56.42578125 29.16796875 C90.15122958 48.8749303 124.33182268 61.56435907 163 67 C161.61034541 71.16896376 158.66612846 72.85729414 155.25 75.375 C154.53900146 75.90029297 153.82800293 76.42558594 153.09545898 76.96679688 C106.3849558 110.90885874 37.56761668 137.31966297 -21.18066406 128.40576172 C-41.67189137 125.01309977 -60.49887024 117.55685859 -78.5 107.25 C-79.67453735 106.57880127 -79.67453735 106.57880127 -80.87280273 105.89404297 C-91.80988317 99.41378975 -97.20053959 89.57973116 -100.9375 77.625 C-105.10676992 58.06351975 -102.45250052 38.51791927 -91.8046875 21.609375 C-80.59792287 5.40565471 -64.14729683 -2.65294127 -45.2109375 -6.578125 C-28.73306143 -8.74310142 -15.13010148 -6.57916106 0 0 Z " fill="#7E4238" transform="translate(413,815)"/>
<path d="M0 0 C11.35958102 10.48427084 17.64434974 24.95226995 19.52416992 40.09765625 C20.86458325 50.87830675 23.99448091 59.43170814 28.71044922 69.16894531 C32.13454696 76.43355953 33.82590761 83.18789984 31.59375 91.04296875 C28.22426357 99.85602635 23.51236626 107.65459239 17.58813477 114.96801758 C13.9496676 119.47190196 10.75921556 124.19747645 7.59375 129.04296875 C-3.18241449 145.43548755 -14.40860942 162.37180724 -34.578125 167.609375 C-46.20127554 169.39137736 -58.15381458 169.07531938 -67.96875 162.04296875 C-72.23813524 158.47642451 -75.59713918 154.36345657 -79.0234375 150 C-81.53279414 146.88592955 -84.17787513 143.96328959 -86.90625 141.04296875 C-91.22362261 136.39746684 -95.32322122 131.62562631 -99.29296875 126.67578125 C-100.64900986 124.98636959 -102.02512567 123.31276728 -103.42578125 121.66015625 C-112.53446583 110.77285278 -125.265483 93.89158903 -124.40625 79.04296875 C-123.62473555 74.73649851 -121.97062295 71.03965693 -119.8203125 67.2421875 C-115.48776376 59.49468222 -113.42443904 52.35935453 -111.84375 43.60546875 C-108.15553072 23.33152102 -100.56746069 6.39225406 -83.40234375 -6.15234375 C-57.22252878 -23.22750586 -23.90331791 -19.44084784 0 0 Z " fill="#BB7E5E" transform="translate(616.40625,300.95703125)"/>
<path d="M0 0 C1.75739832 0.00138269 1.75739832 0.00138269 3.55029964 0.00279331 C4.20043889 0.00193889 4.85057814 0.00108446 5.52041858 0.00020415 C7.71464604 -0.00145243 9.90879826 0.00407358 12.10301876 0.00952244 C13.66964879 0.0098043 15.23627895 0.0096466 16.8029089 0.00907993 C21.06925401 0.00879191 25.33557126 0.0146894 29.60190988 0.02165389 C34.05556076 0.02788665 38.50921221 0.02849116 42.96286678 0.0296793 C51.40246468 0.03279285 59.84204969 0.04100655 68.2816419 0.05102879 C77.88728468 0.0621892 87.49292806 0.06770019 97.09857571 0.07272422 C116.86365443 0.08318914 136.62872153 0.10078904 156.39379025 0.12304783 C156.40685727 1.70595198 156.41612457 3.28888775 156.42381954 4.87182713 C156.42939373 5.75331928 156.43496792 6.63481144 156.44071102 7.54301548 C156.04207402 29.46286505 145.04903474 47.0241693 130.27660275 62.31445408 C128.15230737 64.35501167 125.93186579 65.63734507 123.39379025 67.12304783 C122.72952023 67.78337009 122.06525021 68.44369236 121.38085079 69.12402439 C117.10331596 71.98666887 113.08896725 72.14433812 108.0383215 72.60742283 C107.0226762 72.71274326 106.00703091 72.8180637 104.96060848 72.92657566 C102.80707454 73.14624434 100.65267152 73.35753168 98.49755001 73.56103611 C95.26076109 73.86788399 92.02774572 74.20204773 88.79418087 74.54101658 C79.2873664 75.5085894 69.77610541 76.33719224 60.218009 76.51367283 C59.14895069 76.55122684 59.14895069 76.55122684 58.05829525 76.58953953 C53.0375158 76.59760632 50.3149146 75.15315616 46.39379025 72.12304783 C40.26508361 69.11877987 33.60375682 68.5069691 26.89037228 67.94482517 C21.9059804 67.45927769 21.9059804 67.45927769 19.608634 65.95117283 C17.89568268 63.37348403 16.63542495 60.67998148 15.33129025 57.87304783 C12.73866575 52.42839385 9.73364682 47.55160194 6.26879025 42.62304783 C-2.85112362 29.28130037 -4.69717352 17.00436325 -3.60620975 1.12304783 C-2.60620975 0.12304783 -2.60620975 0.12304783 0 0 Z " fill="#7E4238" transform="translate(494.60620975494385,735.8769521713257)"/>
<path d="M0 0 C0.03738281 0.94359375 0.07476563 1.8871875 0.11328125 2.859375 C1.10962171 22.3173182 6.99955676 36.6510284 19.7265625 51.296875 C25.18174123 57.78310126 28.68856519 64.32672693 28 73 C26.56789785 78.52950552 24.59786521 83.38739162 20 87 C19.608125 85.948125 19.21625 84.89625 18.8125 83.8125 C18.5340625 83.08289063 18.255625 82.35328125 17.96875 81.6015625 C17.27260225 79.73206895 16.60978199 77.85003935 15.96875 75.9609375 C12.55108621 66.2852542 7.97167818 58.07058758 -0.0625 51.5 C-8.23816908 44.72449472 -12.67233032 35.4396763 -14 25 C-14.25773234 17.25682404 -12.29270624 10.85864012 -7.25 4.94921875 C-2.48922846 0 -2.48922846 0 0 0 Z " fill="#C3BB7F" transform="translate(553,625)"/>
<path d="M0 0 C-1.0415625 0.78761719 -2.083125 1.57523437 -3.15625 2.38671875 C-11.30173735 8.5686645 -19.34244258 14.84900458 -27.25341797 21.32836914 C-32.3589845 25.50214767 -37.55123293 29.54218641 -42.79296875 33.54296875 C-46.19854123 36.1440258 -49.57039565 38.78691993 -52.9375 41.4375 C-53.80979248 42.12416748 -53.80979248 42.12416748 -54.69970703 42.82470703 C-55.8779014 43.75259621 -57.05596099 44.68065654 -58.23388672 45.60888672 C-61.15371045 47.90874235 -64.07700451 50.20417785 -67 52.5 C-70.55920912 55.29609309 -74.11805462 58.09264576 -77.67578125 60.890625 C-84.10346418 65.94486408 -90.53729002 70.99054491 -97 76 C-97.66 75.67 -98.32 75.34 -99 75 C-92.19000207 65.7944497 -84.93816522 57.25048647 -77 49 C-76.52916992 48.50725586 -76.05833984 48.01451172 -75.57324219 47.50683594 C-69.1212622 40.78357438 -62.3702801 34.69697504 -55 29 C-54.46987305 28.58282715 -53.93974609 28.1656543 -53.39355469 27.73583984 C-40.03475969 17.27287185 -25.36856625 8.60866632 -9.875 1.6875 C-9.21830322 1.39133789 -8.56160645 1.09517578 -7.88500977 0.79003906 C-3.37866859 -1.12622286 -3.37866859 -1.12622286 0 0 Z " fill="#3F5A44" transform="translate(309,99)"/>
<path d="M0 0 C5.41837108 4.4905193 10.34892383 9.26837125 15.1875 14.375 C15.88552734 15.09171875 16.58355469 15.8084375 17.30273438 16.546875 C23.53725138 23.11951519 27.52997053 29.29476968 28.09375 38.484375 C27.81011727 46.0951866 24.5133953 51.86626964 19 57 C18.67 57 18.34 57 18 57 C17.90203125 55.88882813 17.8040625 54.77765625 17.703125 53.6328125 C16.59094879 42.12263035 15.49782262 32.86334517 6.67578125 24.68359375 C0.40521593 18.38379503 -0.41045733 9.51946958 -1 1 C-0.67 0.67 -0.34 0.34 0 0 Z " fill="#C3BB7F" transform="translate(573,639)"/>
<path d="M0 0 C0 0.66 0 1.32 0 2 C-19.42803532 4.59881511 -38.396167 5.13248587 -58 5 C-56.29085868 1.22217981 -54.68945351 -0.11571598 -51.0625 -2.1875 C-50.18722656 -2.69667969 -49.31195312 -3.20585938 -48.41015625 -3.73046875 C-34.16533461 -11.23381888 -14.28004347 -3.91443233 0 0 Z " fill="#3F5A44" transform="translate(641,6)"/>
<path d="M0 0 C-2.4563963 11.52782473 -7.21673678 20.13924164 -17 27 C-21.81837632 29.69141903 -26.47288625 31.43311654 -32 32 C-30.3429336 27.9019855 -27.42495609 24.97664107 -24.4375 21.8125 C-23.9010083 21.23878662 -23.3645166 20.66507324 -22.81176758 20.07397461 C-3.9560988 0 -3.9560988 0 0 0 Z " fill="#3F5A44" transform="translate(219,136)"/>
<path d="M0 0 C1.2065625 0.0309375 1.2065625 0.0309375 2.4375 0.0625 C3.0975 1.7125 3.7575 3.3625 4.4375 5.0625 C3.1875 6.625 3.1875 6.625 1.4375 8.0625 C-0.69995922 7.81103421 -2.02175779 7.60324221 -3.5625 6.0625 C-3.6875 3.5625 -3.6875 3.5625 -3.5625 1.0625 C-2.5625 0.0625 -2.5625 0.0625 0 0 Z " fill="#3F5A44" transform="translate(203.5625,179.9375)"/>
<path d="M0 0 C1.98 0.495 1.98 0.495 4 1 C4 2.65 4 4.3 4 6 C2.35 5.67 0.7 5.34 -1 5 C-0.67 3.35 -0.34 1.7 0 0 Z " fill="#3F5A44" transform="translate(181,173)"/>
</svg>
